<mxfile host="app.diagrams.net" modified="2022-09-30T17:13:42.938Z" agent="5.0 (X11)" etag="9fhxS06pOs3ApZTObQWG" version="20.3.6" type="github">
  <diagram id="j9nnkGqWFkPmIw64Zv5Q" name="Page-1">
    <mxGraphModel dx="1497" dy="903" grid="1" gridSize="10" guides="1" tooltips="1" connect="1" arrows="1" fold="1" page="1" pageScale="1" pageWidth="850" pageHeight="1100" math="0" shadow="0">
      <root>
        <mxCell id="0" />
        <mxCell id="1" parent="0" />
        <mxCell id="yJfsZLbiuFsfr0gUb3lU-1" value="" style="shape=image;verticalLabelPosition=bottom;labelBackgroundColor=default;verticalAlign=top;aspect=fixed;imageAspect=0;image=data:image/png,iVBORw0KGgoAAAANSUhEUgAAARYAAAA4CAYAAAA4nNe9AAAABHNCSVQICAgIfAhkiAAAABl0RVh0U29mdHdhcmUAZ25vbWUtc2NyZWVuc2hvdO8Dvz4AAAAtdEVYdENyZWF0aW9uIFRpbWUARnJpIDMwIFNlcCAyMDIyIDEwOjUwOjAyIEFNIE1EVOLISekAACAASURBVHic7Z13VBXX1sB/t9CLVBHpTZGqgFLsvcQSSdQYNVETjcnzpWiSZ2JibFETYxKTvMQYa+waTbNjRxQRkGZBelMpIiAgcO/lfn9cuYp0xfLyzW8t1oKZU/bZM+zZZ885e0RKpVKJgICAQCsiftoCCAgI/POQ3v9HdXW1+kdAQEDgYVEbFoVCQVVVFWNOTX6K4ggICPwTkAIolUqqq6spKyurU2Dv4B1PXCgBAYH/bcRKpRKlUolCoaC8vPxpyyMgIPAPQAwqj0UmkyGTyZ62PAICAv8ApDXToOrq6oc2LEolFBWUUVpSQXX143t7LZaIMWijjZGp7mPrQ0BA4NFRGxa5XI5cLm9R5dKSCg5sjyXiRColt+48JhHrYtJWn6ABzgx80RNtHY0n1q+AgEDzqBW8VSgUza6YejmPHxce4XZRxWMTriEK80rZuzWGc8dT+NeCgVjaGD1xGQQEBBpGvUCuxrg0h2vpt1g599BTMSr3k3/9Nt/MOUjRTSHoLCDwLKEO3tb8NIVSCeuWn6TizrMR6C0uLGfzd2FPWwyBBjiZkIY0eB6D5m946Dau5BQgDZ6H1zs/qI9N//EPpMHzWHskqhWk/N9ly8lYpMHzeOXb3562KLVo8ZL+hPNZZKUWPg5ZHpr4iCyy05qWKSO/iBk//YnD9BXojFlA+ylfMOHrXaTceLbG01rU/EPqjVtIZkFxnfPVSiVe7/yANHgeG49daFabH244hDR4HgUlT9dL9LJvxzDfDtiatXmo+rPWHUAaPI/A/6xuZcmax77IRKTB89h99uIj1bE2NWSYbwc6O1o+DjEfGmnTRWqTEJn9OOR4ZC5GZmPtYNLg+Yir2Qxb9CtFZRW00dWmWwdrKmVydp+9iKedBXNe6PUEpX2yVMrkLNpxnF/+9Xyt49tOxXEpK69FbYVezmhN0R6amcMCmDks4KHqyhQKtp2KA+B8UjaJOQV0tDJrTfGa5PRD6LG+Or09HOjt4dAaIrUqLTYsN3NLH4ccj0zBjYblqpIrGL9iJ0VlFYzp7sEv/3oefW1NABJzCjDW1wEgp7CE99cf5PCFZCplcnyc2vPFK4MIdLWlQiZHf9xCBndxYUx3D5bsOkH2zRL6eTny04yRfLbtKH+cu4y2hpQZQ7oxb1xf5IpqtMfMx9XKjLeG+fP5rpOUlFfSz8uRH6YPx8asDXJFNdN//IMT8WnkFpehr63JoM7OfD99OEZ62gTNWU3E1WxWTB3Kj/vPsXjCAPp4OvD++oPsj7pKRZWc3h72fD9tOA4Wxg3q4NfjMcx+vgeud/+B5IpqFu44XqecorqaxTtPsP5oNHnFZXSyMefLVwfjaGGCy5vfqMu1m7wMUwNdcjfO4UD0VRbtPEHytZuUVlThbGnCgvH9GR3gdl+7St5bu59NJ2JQVCsJDnTj+2nD0dVSvdU7eyWTOZtCiErOQUtDysDOTqyYOhQrE8N6xzP9xz9YdySan98axWsDfFFUV7N09ynWhUSRV1yGS3tTlr0yiMFdXOrUPRCVRH5JGVYmhuQUlrD1VCwLxvcHoLSiCqOXFzPKvxMvBLrz+a4TZBUUE9jRlvVvB9PexIBuH6wi9UYhh+a/yqx1B4lKzsGxnQmr3hxJkKttk/eS4/QVag9y3HLVyvbYb2eipSHl3bX7uJB6ncLbd7Aw0mPqAF/mjevbYJ2YtOu8unI3L/fy4td3X6RKruDTLUfYFhpHQUk5jhbGzH6+B1P6+wA0KbtSqeSzbcdYfzSaorIKbMwMmTWqB68P9G3w3qqPFk+FKp+R2MqDNCbXkdgUMvKLMDPUrWVUADpamdG2jR7VSiUjFm9mV1gCQa62TOzjTWRyDoMXbKw1jTiZkMbHmw7znF9HrEwNORidhMfb33M+KYcp/XyQ3f2HPZ90z7NLvlHIJ1uOMDrAje6dbNkXmUjwsq0olUqkEjEXM/PxdrBk5jB/XK3N2RYax6dbjtQaw/xtx+jhZoetWRtGL93K1lNx9PN0ZHK/Lpy+lEHwsq1UNxAjszQ2QFFdzWdbj6qPrTsaRcqNQswN9WqV/XTLURbtPIG1WRveGupPSXklzy/ZSpVczsnPX8PkrhH+a+5E/p47EYCS8kpK71TxYpAHM4Z0Iy23iAlf7yKnsETdbujFdPZHXWVSn87YmBmy8dgFPthwEICsgmIGL9hIxNVsXu7tRU93O347c5ERizejaOYLhZmr9zJ/2zE0NSRMG+SHtWkbkq/XP8XdeFw17VsyaSASsZgtJ2PrxBdDYpL59+q99PV0xMu+HUfjUpi9/oD6fFFZBQPmbcDa1JAR3Vy5lJXH+K92IlMomryXtr0/ln5ejgAsGN+fk5+/hoOFMXraGsSn59Lfy5F3RgQilYhZuOM4v5252GCdB/lgw0FW/BmGmaEe0wd1peROJdP++0et6VNjsu8+e4klv53E1dqcWaOC8HFqT35J3a0+TdFij+V/kRp339fJqpZRuZ+95xOJS7/BiK6u/P7RywB0drBk5uq9fP1HGMteHQSATFHN8cWv0dHKjEBXW15esZM2ulqELZuOoa4WSuC7vWc5fTmTLo7tAZV3sOndF3nOryMAo5ZsYV9kIodjkhncxYVzy99QyxFxNZugOas5n5xTS75vXhvG5H5d2B91lfDELF4f6MuqN0cBYGliwLytRzl1MZ0+9bjFXRwt8VRYsCf8EhdSr9PJxpzPd57EwkifSX0689UfpwG4VXqHb/8+Qydrc05+/hoSsZjgQDd6fbyG7aHxfPZSPzSkEgC6uVhjZqhaqDiuhyfjeniq+0vMKeDQhSTi0m+gq6nySHS0NDi9bBrmhnqUVlTR4c1vWHckmkUTBvDtX2cor5Tx1ZQhvDsiCIDxK3ayKyyBvyKu0MmmbaPXN6ewhDUhUZgb6hGx/E0MdbUaLHvzdjn7I6+iq6XBC0Hu/HQwgvDELMIuZ9LDzU5drlKm4Myy6XjYWVBYeoe2rywlJCa5VltLJw1kxpBuAFzOzichI5fLWfmk5xU1ei99+/owzAxUunO1NqN7J1W/uloaZKx5X92+iYEOH28KITI5hxeD3Outcz8FJeX8fOg87Yz0CVs2DR1NDaYP9sP73f+yaOcJXgh0b1L2mnjjiK4deXt4YKN6b4wnblikGhI8u9ng2dWavGslRJxIpTDvyUyvRKKGz8Vl3ABgUBdn9bGBnZ1rnQPQ1pSq5+M2pio33b6tsfpmrvlnu3n7XnBTLBLVare/lyP7IhO5kHqdwV1cKCgp5+/zV4hIyuZC6nVANX27HzdrcwD1+W2h8fwefhlQxVAArl4rqNewACya0J/DMcnM3RzCwM7O5BSW8NWUIZSUV6rLXMrKo0quIOVGIe2nfAmg9oKuXrvZsPKAsMsZHIlNISEzj4i73lqVTKE2LJ0dLNXekb62JgEdbfgr4gqJ2fnEZeQCMKjzvWnLQG9ndoUlEJ+R26RhuZiZh1KppJe7faNGBWDrqThkCgV9PR2oqJLTx8OB8MQsNp+MqWVYtDWleNhZAGCir4OmVEJRWUWt69LVxUr9u6WxAQkZueQWlTb7XqqPq9dusjfyCrFpNzh7JROoey80xJXsfOSKanq42aFzV+9uNm2xMjFQn2tK9lH+nfhyTyiz1h1g1cEIJvf34Z3hgWhptMxUPBHDIhKBs7sF/v2c8e3lgK6eJtWKasQSMc9P9iMp4QbhR5OJPp3OnbKqVu/f7e6NGZN6nUqZvFEl3W97RHctUUNv4cXiupZKIlbNLh/c2iC6r+WadkUiEel5RfjN/hFFtZJxPTzo6+lA5APeCoBEoqpTXqnSz8xh/rw51L9WGWM97QbH5etkxchurvwVcYWwK5lYGhvwxuCuLP/9tLpMWaVqOhnQ0YZf332xVv2aWIi4Hus8e90BVu49i38HGwZ3cSY1t5BbpbVXYkse0FWNDu7X4f1N1/yuVCrr7fN+xGp9NloMgF/vToMOxyRjNmmJ+vhvZy6y8vXnGqxXI29D082aru8/39i9VN+983v4JcYt34GteRuCA9zxcWpPau4t9fn66jQma52+aVp2VyszYlfO5Id94Ww8doGPN4Vw6mI6ez+Z1Ky+1bK2qHQLaWfThlGv+vL5+rG8v/w5ug9yIfVyHmuWneCdFzbz5ey9hO6/gpW9Ma+824PlW8cz/eO+ePnbIpG2nmgDvJ2wMzfiRlEps9YdqPUEyC0qpbD0Dh62qqfT8fg09bljcakAeNlbPFL/1Uolpy6m12nX086C38MvUVRWwcrXn2PVm6N4qYdXo235OKmmV2FXMrE2NVT/GOpoodfANK+GBeP7IxKJKKuo4sPgnuqnWg3e9u2QiMXEpt1AV0ujVts1sZUaj+BW2T3Dse5oNI4WxoQufZ154/piZ153JXRs2g1u31F5R2UVVYQnZqEpldDRyhwPW5XhPx6fWo+O2qmnrzX1H8TTzgKxSETY5UwqZA1vS7mYmceF1OvoaWtyeP5kji6cwtGFU/B1sqKorIK9kYmN6q+5NOdeMtRRPQRuld5bZLrx+AWqlUqOLprKl5MHE3g3EFxDfXXup6O1GRKxmDOXM9X3eGJOAdk3S+hoZYaGRNKk7EqlEmtTQ5a9Moj0X2bjZmPOwegkSita9sBvdY9FJBLR+zlXgga5YOeimjJkpdzk2J8X6+wpSrmUR8qlPHasCsejqw3+/ZzwDrDFt6cDpSUVRJ5M4/Bv8dx8xKmSplTCttljGbrwV34+dJ6/Iq7gZd+O4vIKLqReZ8H4frw3MggPOwt2n73IuOU7sDQ2YO2RKLQ1pMwa1f2R+gcYu3w7E3t3Jj3/FnvPJ+Jm05YhPi7kFqnGdu5qFs6WJvx0IKLRdkZ2c8XTzoLTlzLoP289PTvZkXzjJifi00j5eVaj3pinnQUrpgwhu6CE6YP86py3MNLn9YG+/HzoPN3/s5oXgtwpKqtgV1gC++dNwtfJCj9nKxJzCpjw9S76ezmydNIgjPS0yS8pJ+xyBmm5RYQnZtVpu6yyip4fr2GQtzOHYpLILSpl5rAAjPS0eXdkEGtCovhwwyEScwrIKy5jV1gC7rZtGeXvilgkwtrUkKyCYiZ+s4u3HvDULIz0mTrAhzUhUXSfs5rhfh1JvXELT3sLPhzdU12uZq3O+J6e6kAowL+G+TP1+z1sPhFb71ukljKia8cm7yU/ZytWHz7P4p3HiUjKYvGEgRjpqgzH0dhUrEwN2HIytla79dW5H3NDPaYN8mPVwQj6fLKWXm727Dwdj1Kp5JMxfZol+y8hkWwPjaebizW6WhpkFZRgZ27UYGyyIVrdsLw4rRsDRrtzq6CMQ7viCT+azLWMW43WkcuriTmbQczZDHT1NPHt6YB/fyd6D++EX28HPp6865HfRnXrYE3U12+xbPdJDkYncSwuFUtjfUYHdGKYbwckYjF/z53I7PUHCIlNplKmwMepPUsnDsTO3KjRJ2FTaGlImTumD8t/D6W4vJIB3k78OGMkYpGIiX28OXUxna2n4jgYncTk/j6NrqnQkEgIWTCFuZtD2BeZSHhiFvZtjZgxtFuzZGkqIPfdtOewNmvDxmPRrPgjjHbG+ozs5oqlsSqe9NlL/UjLvUVkcg4ZeUUsnTSItTNH8+9f9jJi8WYCOtrw2gBflu4+Vavdvp6OdLI2Z82RSACmDfJTB8TtzI04MO8VPtocwpqQKLQ0JAQHurFiylD11PLHGSN5d80+doVdxNfJigf5YfoIrEzbsOFoNMt/P42jhTHDu3ZUn69WKtkWqlq7Mn1Q11p1x3R3Z/b6AxyMTqKo7NG3qTR1LwG83NuL4/Gp7I1MZPOJWN4a6s/CCQPIyC/m3bX7cLY05fWBvuqYWkN1HmTFlCHoaErZHhrPyr/P4mBhxKo3RzGmu0ezZHe1MkciFrMmJJLyShmdbMz58Y0RLdaBSC6XK6uqqigpKSEnJ4d5+V/UKvBgBrkVH+7nanzDAajZXwylg5clsWczOXs0mfiILOSy5m9uBGhvb0xAPye6D+6AvqE2C2b83qRx8u/rxNQPe7eon8dNzToWLQ0pZTvmPW1xBASeGK0fvL0bKPIOtMU70Jby0kqiQtM5dyyZ5Iu5DQZC25jo0rWPIwH9nbFxVK2gLa8J5DYvZiUgIPCM8NjfCunqa9FzaEd6Du3IzdxSzh1P4dyxZG5kFaOlLaVzkB0B/Z1x7dwesVhEYV4pB3fGEX40GTcfK8a+Udfd+19BJAL/DjbYtxXSOgj8/+KJrmMxtdBn2EveDHvJm2vptzBtZ4CWtpTysirOHE7i3LFkkhJuqL0aN5+6c+n/JSRiMWHLpj1tMQQEnjhPbeVte3tj0hLzOfxbPHHnWh6HERAQeHZ5qkv6o0PTiT6d/jRFEBAQeAwIn1gVEBBodQTD0ko0J/ve06Klsj3psTzLuhN4OP7fGBaZTMbvO7cy78N3WDT3fZbOn8OZU3XzkTwMv675iauXm58JrIbD+/8kO7N1EidtWvsTCbHRdY4X5Ofx7RcLm91O9Plwdm/f1Coy1XCzIJ8vFn5c77mH1d2zQGPjepwcO7yf779aQlTE2VZpLzzsJHt2bG6Vtmpo9RhLa35XSFdftYxYqXj0Ntf9tBJtXV0+WfQlmlpayKqquH6tdbLhKZXNyxnyINeys3F182y6YDMY/+rriMX17AVpZi7je8Vb33swMTVj1pz5DfT3cLp7FmhsXI+TU8dCmDN/CdraOq3SXrfAHq3+PbBWNyyXorJx9X60/JuWtkaMnuKHd4AteddKyM2pm6+1JaSnpZCZkcaCL75FKlVtvNPQ1MTWXrVf5Hx4GCePHkIikaKnr8/4V17DwLANiz/5gN4DBhMdEU5JcRFDRjxP14AeFN4sYMv61ZSWlmBsYqr+HlPoiSMUFRYyIngsAH/v2YmRiQk9+wwg7kIkIQf+RiKVYm5ugXNHV5ISL3HnTjl29o4MG/WCWt7tv64lOysDZXU1RiamTHnj30il9y7Vzi0byMpIQ0dHF1//QPyDerFt4xq6+Pnj4e3D8ZADnAk9jlSqQSePe5sai4tusWPzeuQyGYpqBS+Mm0R7a5s6+iouusWq75ZTevs2unp6TJr6JjnZGZw8cog33lblC0lNvsrfe3byzoef1KqbmZ7Gjs3r0NXTQywSM23mLIqLbrHmx2/4z7wlDepOLpezZ/sm8vNzkVVV0avfIHy61k49+aAOJ0yZTlZGGnt2bFEbqNFjJ2Dn4MTGX/6LpZU18THRlJWV0sXPH21tHWIiz3Gn4g5jxr9KJw8vFn/6AV39u5N45SKlt0vo1XcQPfr0JzM9lZ1bNiASi6mqrGBE8Dg8vLqwbP5HuHt3ISE2mukzZ6vHVd+4xWIRf+/ZSXJSIiLA3tGZ58eMp7CggO2b19HO0oqsjDTu3Cln8rSZta5F6e0SdmxeT0lxMQqFnB59BhDQvRcH/t5D0a2b7Ny8ge69++Hkotq2sGzBx0yZPhMLS9Um1T9/246BoSHa2jqEnTqGWCJBWV3NlDdmoqmpxdqfVqKjq4ehYRscnF24lp1F8LiJDepz3arvCOrVV/0gXLF0PhMnT6eysrLOuKVSaesblkO74im6Wc6oV30xbavforpGprqMnORD4EAXUCo5te8Kf22KfmRrmp6SjFMHV7VRuZ+szHRCDvzFrI/mo62tw/nw02zftI5p/3qPysoKxCIx73z4CaW3S/hy0ad0DejBlvWr6dVvEN4+fuRev8bS+XMYOKTh/RTXr2Wz94/feO8/89DR1UUulyOVSomOCOe5US+oDVwNwS9NRFNTtYv4p5XLSUu+iourKs1j3o3rpCYlMmf+0nr7Sk1KJPLcGf4z73MkEilb1t9LFr15/c+MDB6HjZ0Dtwpvsv7n75n10fw6bVxKiOXjBV9gambOmdDj7N7+K5Onz2TPji0U5OdhZt6W8+GnCezZp07do4f2Mnj483h1rj+VYUO6O3Z4P2ZtLRg7cQoKhYIVSz7D1c0TXT29BnVYVVXJmp9W8uY7H9DO0oqCvFx++HoZcxd9iVgs5lp2Fu/NmYdCUc2nH/wbz84+fPDpYtLTUti9fZPa6MoVct5+fy53ystZtuAjOnRyp721LbM++gyxWEJmehp7dmzCw6sLcoUcHR0dPpq/jJsF+Y2O+3jIAUqKi5k15zNEIhFbN/5C6PEjeHj7kHI1kdFjXubF8a8QExXBkYN7eeX1N9V1t278Ba8ufgR0701VVSVfL5mPja09Q0cEc/LoYSZOnV7LQ+3eqy/hYScZ9eJ4lEolMVHnmD13IZqamgT16ntXxn2Eh52id//BpCQlMuuj+Tg4uRAedhKgUX02REPX+7G8bj53LIWo0HT6jOjEsJe80TNoPPmOrp4mQ8Z50W+UOxqaEi6EpfP7+qhH9lTuoVRvZnuQ+AtR+Af1UruVfv7d2bVlo/q8X4Aqo5m+gSGVlRXIZDKyM9Px9lHtDrawbE+HTu51G76P2KjzBPbojY6uKgnU/d5HfWhoaJKZnkpOdia3S4qprLy3Mc7EzByphgZrf1pJZ99udPbthuS+7fCXEuLw8w9SG9GefQewe/smFAoFKVcTOXHkkLqsSCQiIy2FnVs2ABDYow86urp4dfbF1EyVWKprQA/+2r0dgD4DBnPq2GGeHzOeS/GxjB47gdMnjnL29AkAxk6YjLdPV/7YuZXsjHT8/INo2+6e9yqXyxvU3cW4GPT09cjJUiU30tTSorjoltqw1KfDpMQk2lla0c5StZDSrK0FpmbmXM/JAkT4BXRHLJYgFkuwaNee3v0Gq/ptZ0nxrXt7z/wDVTugdXR18fbpSnLiZYJ69aX0dglpKclkZaSpr4EIEb7dgupcs/rGHXshkuCxE9X5UAKCenFo3594ePvQrn17rGzs7srTnsKbB9VtVVcrSL56hWn/mqXShaYWnf26cfliHFY2tnX6BvAL6M4XC+YyIngcKUmJWNvao69vAEB+3g0y09PIykjDsI0RIkSYmJrh4FR7J3dGWmoj+qyfhq73Y1vHIpcpOLIngTOHrtYyGvcj1ZQw6AVPhozzQs9Ai6SEXPasPU/qlZZljm8KOwcnjh0+QHW1ok4cQomyVmIcpVLZ4N4kkUiESFSP93T3kKieiiJEDX8Irp7MRJWVFXz/1RI6eXjh5NIRE9PaO52lUimzP15ARloK4adPEhMVwWtvvnOvyQeSAdVIKxKpzk2c+kadREAffLJI/XtUxFkkknu3hUQiVv/dNaAHS+Z9iL2jM65unmhqatGjT3969OmvLm/n4ESHTu5cjLvAqu++YuqMt9XGoN5ERTW6E8HAoSPr3Ow11KvDepJAKZXVdcYHKr3VHJaIJfc6run8/r6U1ZwNPcH5c2EEdO+Ng5ML8bFRtdp6EJ+uAXXGjVJZ63pUP/B3DWKxuFZuX6VaJ7Xvy/rGVYOOji5OLh24nBBHTHQE3Xv1A1QeolKpxKuLL+2tbSi9fVulg/oebo3ps76+RfWP29rW7vG/FSovq2LPukg+fe03zhxOqjWtGTmpCy+83pXiwnL+O/8IX32wr9WNCoCDkwvt2rdn269r1R++l8lkZGWm4+HVhYgzoVRVqpIIRZwNxc2jc4NticUSrG3tiYlS5U25fi2bq1dUbzWMTUzJy723zf3G9RyMTUzx7OLL2dMnuFOuSlcpq1JtrtTU1KSionamtezMDAwM2/DcqBdxdfNELq+bLqK8vEw1Xx/7MtlZtd8qdXLzJOLsaWQyGUqlktBjh9Vy2zs6c+ru30qlksz01DptA1y+GKfWR0JcjNqr0NDQwLdbENt+XVPvNAigvKwMfX0D/IN64dXFl2vZmc3SXSd3L44d3q8OHqenpdRqtz4d2jo4kpOdRV6uard97o1rFBXdwtKqbtyoMc6FnVLLHh8ThaubJ+fPhRE8diLdAnugb2DQZBv1jdvD20etb4CzoSfw6lw3D86DSCQSHBxdOB+uyu5XWVnBhcgI3L0avi8BuvfqR+iJELLS0+jo5oFSqSTuQiQTp76BVxe/Wg+M+mhMn8bGpuTdUB2XyWTcullAGyPjBq/3E1t5e6ugjI3fhBKyJ4HRU/zw8reh6GY5f2++wNmQpFaPSj/ItLfe4+/fd7J0/py70wQlPfsOpGefAfQeMJiVyxejoaGBgWEbXpr0WqNtvTx5GlvW/8y+P3+jnaUVXfxUGyXdPL25lBDDiqXzQanEysYON09vRCIRA4eO5Ievl6KhqUlbi3a8/Oo0vH26sn3TOuwcnHj19bcAsLV3RCwWs2XDaqoV1VRW1M6aJpPJ2LD6BxRyOSUlxQwbGVzrvKNLR/z8g/hi4cdIJBJ69h1Ifp4qp+zEKW+wbeMawsNOoVQq6eLnXye+A2BjZ8+OzesAEVVVlYydMEV9rmMnd2KiIrB3dK5TDyAhNpqwU8dRKORoa+swZPhoysruJepqSHf9hzzHb9s2sXT+R0ilUtpatGPC5OloaKreDNrY2terw6kz/q2OI0kkYl6b8XaTU80HkUgkfPvlIsrLSnnu+TGYmbelV9+B/Ll7G6ZmbZFIJIhEjT+D6xu3hqYmf+zayoolqhiLcwdXAnv2ofBmQZMyTZgyne2b1nH6xDGqqxUMfm6UeorSEI4uHcnfkItfQJDau+neux/rVn2Hto4OFRUVGBk1/IkYLS3tBvU5cOhwNq1dRfT5s8hkMoaOCEZbW4eIM6F1xg2PIR9Lc9HV1+JOWVWrvd58FvOx/NNQKpX88t+v8ezsS2CPPk9bnFZh8acf8Pb7czFsI+xAb01a7LFoareOk1NeWn/+0odFS7fuGx+B1uNifAx/7NqKu2fnf4xREXh8tNhKmLVrer75NDCzaNmrbYGW4e7ZGXfPxuf4/4tMnDqjWTEUgZbR4uCth5/145DjkXF/RuUSeLaxd3Cqf8WywCPRcsPS1brRj68/DTz8nj2Zzt5hggAAAWhJREFUBAT+P9NiwyISiZjyQS+0dJ6NmIahsQ4T3370z3MICAi0Hg+1jsXawYS3Fw3CoE3DX957Epha6PPe0iEYm+s1XVhAQOCJ8dCveJzdLfhsVTAHdsQScSKF20WP/j2W5mJsrkfgABcGv+iJtvA2SEDgmeOR3h0bGGkz9g1/xkzvxq38MspuVz7WhW5iiRiDNtoYmeo+tj4EBAQenVZZlCISiTBpq49JC3czCwgI/DP5f5NBTkBA4MlRy7A0tntSQEBAoLnUmgrVZ1iGHxr3xIQREBD4ZyCSy+VKmUxGaWkp169fJy8vj7KyMhQKhToHhpBFXUBAoCWoPRaRSIS2tjYGd/dNVFVVIZfLG05SJCAgINAAUlAZFalUiu7dXKIAlZWVaq9F8FgEBARaglQkEiEWi5FKpWhpaaGrq4tIJEImk6FQKFC28PMRAgICAmrDIpFI0LybrUtDQwOZTCZ4KwICAg/F/wGySR/6V1yonwAAAABJRU5ErkJggg==;" vertex="1" parent="1">
          <mxGeometry x="139" y="466" width="278" height="56" as="geometry" />
        </mxCell>
        <mxCell id="yJfsZLbiuFsfr0gUb3lU-12" style="edgeStyle=orthogonalEdgeStyle;rounded=0;orthogonalLoop=1;jettySize=auto;html=1;exitX=0.25;exitY=1;exitDx=0;exitDy=0;entryX=0.75;entryY=0;entryDx=0;entryDy=0;" edge="1" parent="1" source="yJfsZLbiuFsfr0gUb3lU-2" target="yJfsZLbiuFsfr0gUb3lU-1">
          <mxGeometry relative="1" as="geometry" />
        </mxCell>
        <mxCell id="yJfsZLbiuFsfr0gUb3lU-2" value="" style="shape=image;verticalLabelPosition=bottom;labelBackgroundColor=default;verticalAlign=top;aspect=fixed;imageAspect=0;image=data:image/png,iVBORw0KGgoAAAANSUhEUgAAARIAAAA4CAYAAAAxd3fHAAAABHNCSVQICAgIfAhkiAAAABl0RVh0U29mdHdhcmUAZ25vbWUtc2NyZWVuc2hvdO8Dvz4AAAAtdEVYdENyZWF0aW9uIFRpbWUARnJpIDMwIFNlcCAyMDIyIDEwOjM3OjA5IEFNIE1EVHmk5dwAACAASURBVHic7Z13WFRH24fvLfQiiooooCAqKiAogth7r2g09p5E42uM0cTEBEvUFKPpsSRqLLGgsfeCBbEjUkRFOopUBQSEZcv3x8rKujQVNPly7uvykj1n5jm/mT1nynNmnhWpVCoVAgICAq+A+E0LEBAQ+PcjNCQCAgKvjBRAqVRq/gkICAi8KFKFQoFMJuOtcxPetBYBAYF/KVKlUklubq7OiYO9drwBOQICAv9GxAqFgry8vDetQ0BA4F+MuLCwkMLCwjetQ0BA4F+MVKlUvnRDolJBZnouOdn5KJVVtxxFLBFjVs0QC0vjKruGgIDAyyOVy+XI5fIXypSTnc+R7SFcORND9qMnVSRNlxq1TWnb3ZEew1wwNNJ7bdcVEBAoG6lSqUShUFQ4Q8ytVH5bfJLHmflVKKtkHqbmcHDrDS6fjub9RT2wtrV47RoEBAR0EatUqgqvH0mKe8SP84+9kUakOGkPHvP9vKNkZlSOk1i2ayT5PzdBlX6rUuwJCPzXEKtUKiqy3UalgvXLz5L/5J/hmM16mMeWnwJf2Y7i7mGUiRdAnk/huaWVoEygNBbvOI3Ux5elO8++tI01x64i9fFl5u+HNMeaTP8BqY8vUQ8eVobMfy3v/LYXqY8v604GvfZrV3iJfPjVRBJj/llfVNiVRO7FvoImpRz5+W+efYwPQBl3pkJZR63wQ+rjy4y1B0s87xcYjtTHl4bvrnx5fZVI0QPo+sEvKEvoOBLSszAZsRipjy9xqZkVsuk5dzWuH/xS2VJfmC4u9vRt1RgTw5fzm7Wc/RtSH18+3Xy8kpVVjI//PIbUx5f07IqPsEvK49qgDn1bNcauZrWqkFkmFW9Irt2rSh0vzc1X0KUI2YQqMw6kBqBnDIgoPLcMVBX3Ga07EUR0snZjplAqWbTd/6V1VSURialsPReqc3yJ32kKCivudM/JlxESm1yZ0l6a1dMGsX/+GKyrm71w3tC4ZELj1OXYeja0xEa2qgm4FV8peWb0bcP++WPo4eZYGbJeCGlFE2ak5FSljpcmPfnldKkKspFf+gkAg6lXEBlaUHhoOorIQyhu7kTi/HaF7BQqFCza7s+mWcM0xzadvsGd++k6af0Cw1nid4aoBxnUsTDlg4Ft+aC/NwBt563lSuQ9Vkzqw2+HL7NkdHe6uDgw8/eDHAqKpIapERO6urP66FXSsnNJ/nMeNc2NuRH7gDkbjnI58h5G+lKGtXVmxaTeGOmX3jsv2u7PiPbO6EkkANx9kMGm0zd00qVl5zJnw1EOB0WSL5PTybkBP0/tz9mbcUz5ZQ+gbpikPr74eDfDb+7bfLf3PBv9g0lMz0IFtGpYl5+m9MO5vpXGbmpWDgOWbOF0WAzVTY34YIA3cwa315zfcOo6K/aeJyblETXNjRnZwZUvR3dHXyopsTxNpv9AdPJDbv86C0frGqRn5/HJpmMcuHKbQoWS1o3q8du7A3G0rqGTd6N/MAD1aphz/2E2Z8Ji6erqAMCha3cYtOwvvp3Qi0ePn7Dh1HUK5AreauvMD1P6IpMrsBi1hEFeTRnq3ZylO8+QmJ6FdxM7Nsz0oW4NdcN28XYC8zafICjqPgZ6Unq4NWTFpD7IChU0mva9RkudCV9jaWZMysZ5HLkeyZd+Z4hKyiAnX4ajdQ0WjeyGm711qXne+W0v609eZ830QUzu3or7D7OZs+Eox4OjKCiU07JhXb4Z1xNvJzty8mXlan+Y84T31xzgZEg0coUSJ5tarJjYm7ZOdjr1WOERScE/xDfyPC+rS3HlF1T5j55+kAGgkhcAIL+wAgorNsy0rm7G9oAwwuNTAJDJFSzxO0MtcxOtdMeC7zJqhR+5+TKm9/HCtpYFH60/wt8Xb2qlW7jNn/bN6lO/lgXDvt2GX2A4Ho71GOjpxKqjV0jLfradISUzh25fbOBa1H3Gdnaje4uGrD1+lU82lj5Et65uRmzKI34/fk3rmnKFUkuzSqViyFdb2XoulK4uDkzo6s75iHh8vt5K9xYN2fyhuuG0t6rO2aWTWTyqOwAJaVnUNDdhUvdWDGztxLmbcYxa6aelYdWRKzzOL2Byj1YUFMqZt+k4foHhAOy+GMHUX/fyKDefqT09sLIwZcW+QOZsOFqh70MmV9DNdz0b/YNpZlebid1akpVbQF6BTCetXKFkW0AoUomYL0er9W85q9ugLtzmj19gOMPbu2BuZMDa41dZX8wPceJGFP9be5AuLg64NqjDqdBoPtpwBIDE9Cx6LdrIlch7jOrkSofm9dl14SYDlmzB0syIs0snU8PUCID988dwYP4YALLzCsh5ImNYW2fe6+1JbEomo1fuRK5UlJqnOEqVigFLtrAzMJy2TnaM6dyCa1H36bVoIwnpWRXSvmDrKXYGhjPYqynT+3hSw9SIvIKSn7cKj0j+P6HKvo88eMOzA4VP18LI1f+rclORB61F2mZWubbmDe3IB38c4outp9jz6Sh+P36N+LRMvp3Qi4//PKZJ57vVH5FIxNllU7CxNKegUI7V+K/55dBlhno316T7fnJfJnR1xz80hvMR8XRxceD4wvGIRCLGdXHDa+4aTdqV+wLJystn84fDGNnBFYCMx0/4/fg1lk/ohYGe7tc7tacHvx25zLKdZ5nQtSXRyQ/xCwynn0cTHj8pIO2muqE6cv0ul+4kMqVHK1ZPGwSAdQ0zfLeeIupBBu4OdQEw0tejXdP6Gvs/Te33rJ5VKvZevkVEYprWDejRqB6nv5yESCRiTKcWeH+yluV7Ahjezpmlu84AcPDzsbg7WFNQKMfp/R9Zc+wqnw/vXO73sftiBDcTUunp5shh33Flpj1yPZLUrFy6uDjg492M91btY/fFCH55ZwDGBs9GdNbVzbi2YhpmRgZ0aFaft77dzomQaMZ0dgOgoFDBha/fwbm+FQ9znlB73FecuBEFwA/7L5BXUMh3E3sza0BbAEau8GNnYDinQmMY0qYZek9HWp6NbKhprl50OaK9CyPau2g03LmfzrHgu0Q9eEiflo1LzFOcg1fvEBqXzIDWTuz5dBQAbvbWzFh7kJV7A1kypnu52oum7DP6tqGFfZ0y6/K1NSRSPQkunra4tLYhNSmbK2dieJj6ZqZL8sBvNKMQAFVuChhVh4LsZ2murUHiMhqRSa0ybbVpYkPfVo05cPU2/qExfLXrLHUsTJnW21PTkCiUSsLi1fPwVrN/0+TNKyjkbpL2FKiZjfp6oU/T92nVCJFIpM7bsB62NauR+LRHCY59AMD/1h5k1h+HAbXvolChIC41kyb1auroNTHUZ+6QDnyy8Rg/H7rExTsJqFQqFr7dVdMTAQTHqG1vCwhjzyX1a/EiH0pkUjp1SvFHyOQKjgRFEhARz617acjkCs3xInq0aKgpU+tGNlQzNiQiMY1ChYJbiWnUMjfB3cEaAAM9KR2bN+CvsyHcSkwt+UsoRlE992/dpNy0RdOazs72yBVKPBvbcD4inn1XbmkaZoAm9WpiZmQAoPHDpGQ+u3cN9aWaqVsNUyP0pRIyc/ORyRWEPh2p9nRrVKz8juwMDCcsPoUhbZqVqi/wVjwnQ6IJT0jlyl21L1BWWDH/XdH909P9mb+kyHdSdK487WO7uHEyJBqPOato62THjL5evNXOucTrVWlDIhKBY3MrvLo60qqjPcYm+igVSsQSMYMneHA3PJlLp6K4fj6OJ7m6Q8+qQJkSiuL2fq1jsr9Hg1iqPZ0pzEN+cQV63b8u1+biUd04cv0uQ77eSm6+jJWT+mj5KOQKJTK5AgM9KddWTNM8RAASsUjLlkSi/fl5xMXy5uare/kNM300I4Qi6liYlmpjeh9Pfth/gWW7zpKbL2OQV1PNg1tE0VRgRl8vpvXx0jpX3cSQ+w8f69iVK5R0+PQPgmOSGOjpRBcXewIi4sgr0F6nJBFrz6hFInW5RKiXGYieq4Kij6rnyl8SRedF5aTLeJzH4aBIABZsO8WCbac057acCdFqSJ7XCpTplC26dvE0xeUU/V207KKkMn20/gg/HryIV2Nberk7EpPykEc5z1aRl1cPmmuVoKssf3Jx7SM7uNK4riU/HrjI7osRjFzhR1xqJnOHtNfJVyUR0urYVmPQ+FYs3TCcOcv70a5nI2JupfLH12f4YOgWvv3oIAGHb1OvQXXGzWrP8q0jeeezLrh62SGRVm3QNvm5pahvyWcYjNqP4YxbiK1bah1XhPuhyogs16abvTWDvZqSmy+jbg0z3unVWtu+npRmtrUpKJQT9SADG0tzbCzNqWNhSjVjwxJtOtupe4m9l25pbsjQuGSt+W2rhurGIygqSWPTxtIccyMDpJLS69FIX49PhnYgN1+GSCRiwYguOmlaPrUdeDtBx7aJoT7mxuoeOjP32c0dFp9CUPR9xnZxY9cnI5kzuL3GoVucczfjNH8HRd8nMzef5na1kUokONnUJDUrl4ino49ChYKAiHgkYjFNbWphaqQPQHZeyYsi3Z42iCdDokstP8C2gFBkcgVejW05tXgipxZP5OiC8Rjp63EyJJrkzMoZLTvb1QbgdFiM5ph/qPpvl/rq6UJRXT4qVpfrT13Hwao6AV9NwXdEF+rX0l7FXVIe7etaPb1urM51XRtYlZjneVQqFa0a1mPTrGFE/PoBIpGIXRdulpi20kYkIpGITv2caNuzEfUbqYfUidEZ+O+7qbMnJzoileiIVHasvoRza1u8ujakRRs7WnWwJyc7n2tnYzm+K4yMSp76KKNPoLx3See4Sp6PSF4AyueGjSoFhQHL0B/8Z7m2l4zujm3NanRzdcCwBN/E58M7M2qFH0O/2caEri2RisUcuR7JhG4t+WhQO5303Vwd8Gpsy4XbCXT7YgMtHazZfj5Ma/HgzP7ebD5zg2W7zhKb+oj6tSy4eCcRYwM99n02uky97/RsTUJqFvVqmuPaQHf+O9DTCZf6VpyPiKeb7wY6NK1PVHIGZ8JiiV4zmzoWpthYmnMvI5tBy/5isFdTOjZvgEgk4ta9NK5E3uNkaDQ5+bojzfO34un35Wac6tXkr3MhAHzi0wGAz4Z1YuQKP/p9uZkR7V0IiIgnPi2T93p7YmVhiodjPQD2Xr7F/9YeZP5zfpMBrZ1oblebfZdvMWjZX7jbW3PhTgILRnTR8uUUvaWa0c+LTs72muPD2zuz0T+Y7QGhNLK2LLMOK8KsgW3540QQH/95jDv300nNymVnYDjN7WozyMsJAA/Hety5n87olTvp5urAV2N7YmFiSFp2HoG34olNyeTSnUQtuyXl0a6HJjjXt+LvizcZsXwH1tXNWHcyCEM9KbNLuN9KYvIve3j8REYz21o8yslHpVLR3K7kqX6ldf/Dpnoy8n1vzKsbcWxnGIve28OSGfs4uedmqRv75HIlNy7Gs2apP3NHbmPLj4E8SMikU/+mfPbzQAwqeWNeYeDyEo/Ltg0m/+fGKFNCdM4pY0+jTLpWQi5tmtSrycpJfejnUfLcfHg7Z/zmvk3jujVZe+wqG08HY1fLgk7NG5SYXiQSsXveSN5q50xwTBKbztxgUreW1K6mfrMiEYtwtK7B2aWT6eXeiANXb/PjwYtk5xUwqmPJw/Li6EslfDuhl+b18/PoSSScWDSRyd1bcedeGsv3nic45gHv9fHUpFk9bRCN61py9PpdjlyPpGGdGnw3sTfxqZkMWLqF6OSHDGnTVMf2zH7eiESw+thV9KUSvp/cV+MreKudM6unDcLYQI8fD1wkPvURHw5sy4qJvQFoZG3J4lHdMNSX8vuJa9zPyNKyrS+VcHLxRMZ3defSnURW7AskXybHxFBfk+b2/XSuRydhaWaMz3M+ind6egCUuNbmZahfy4IjvuNwb1iXP04EcSz4Lj7ezTj4+VjNFG/B211p62RHeHwK609eB2DdjCHUrWHGgCVb2HouhMndW2nZLSlPcSRiMQfmj8HHuxknQqL4/cQ13BysObpgvM7opjTaNLElLvUR3++/wMbTwfRu2YhlzzVYRYiSk5NV9+/fxzftG60Tz0dIW/HxYSLDSl+A9NE3fWjsak3IxQQunooi7Eoi8go6hoqo26A6bbo2pF2vxpiaG7LovT0kxT8qM49Xl4ZM+rhThezLdgytUKOghdQI/be2I67j9mL5qgCFUonFqKXIFUpydnyh42sQEHhTVJ6z9amTpoW3HS287cjLKSAoII7L/lFE3Uwp1cFTrYYxrTs70KabI7YO6gVDeUWO14r5kyqM/oi/1W9rXmT1okQKopIXQr1O8gvlrDl2lSeyQjo2byA0IgL/KKrsrY2xqQEd+jShQ58mZKTkcPl0NJf9o0hOzMLAUIpb2/q06eaIk1tdxGIRD1NzOOoXyqVTUTRrWY/h73qVf5GXQaJffpp/ENNW79daPFbd1Ihvx/d6g4oEBHR5LetILK1M6ft2C/q+3YKkuEdY1jHDwFBKXq6MC8fvctk/irvhyZqBQrOW9V6HrH8Fvd0bIRGLMTPSx6leLQZ4OmlWNQoI/FN47Stb6zaoTuydNI7vCiP08ov7Uf5rDPJqyiAvXYelgMA/iTeyRP56QBzXz8e9iUsLCAhUAYLHTkBA4JURGpJ/AXm5ucjlL7/7OiurYoGKXicVicpXnFetA4Gq5f91Q5J0P5H/TRlDemqKzrnQ4Gt8OG3C6xf1Eqxf8xNJ99QrG6Mib3HO/4Tm3Bdz/0dBQdkxdJd+MbdK9RXn+OF93EsoO1DPji3rCbvxYuEAi9fB5nWrCA/RXYT1upHL5Wz6Y1W56YrXSUZ6Gt8s/qxK9FwKPMvuHVsqrKUyqbSGpDJ/18bYVP2KVqV4dZtisYijh/bqHD92cC/if+FajNTkZGSyAs3nL5Z+h4FByft13gRJ9+6hfH6rwXOoXvFeGTl+Cs1c3vwCwUcP08nN0d28+DzF66SGZU1mz1tYJXo8vdszcGjZAbkq8v28DJXmbI0IuodTC+vyE5aBtZ0FQyZ60KKNHalJ2aTczyo/Uzk4Nm5KTFQkGempWNZUb6C6GXoDy1q1ychQb+GXy+Xs3r6ZtLQUCmUyOnbtScvWbdi+aR1GxiaEhQQx6d2Z5OXlsmfHFvT09bGxa0DI9av4LltJXm4OO7ZsQF5YiEKpYOiIsdS1sdVouBBwmnsJ8aSmPOBxdhbm1Szo1LUnRw7soSA/H482bendfwjzZr3HspW/IhZLUCoVfDb7fb7+YbXGTlxsNAFnTgLw4H4iI8dP4cv5c/h8yXIiwkK4fvUSSqWSrMxHGBoZMW7yNMyraS+Hjrl7h0P7/kYikWBgaMioCVMxMnoWz2LJF3PxatuRkOtXyc15TP8hwwkPDSblQRIqlZKp78+mhmXNEu2EBl/j7p0InjzJo34DB7r37s+qH5cjV8iRFeTj7uFF7/5DAIiKvI3/8cMUymTUd3Bk2MhxiMVirl4K5OypY0gkUkxMTRk5bjJm5toxSLdt/AN3Dy+cW7QkNPgaJ44cQCKVUquWFaMnvvOs3s+dJvCcP2KJBJVSycR3Z6BSqti+ZT11rOuRGB/Lkyd5TJg6A319/RKP17WxJedxNju2bCA7KwuFQk77zt1xa9maXds2cy8xns3rVtG1Z18UCgV+f/2JSCxGVpDPAJ8R5OY81qoTr3Yd+eO37/nEdxlKpYIDu/2IunsHEdDAwZHBb43kUuA5kpPu8zAjncxHD9HT0+e9D+ZgYGCI319/khgfi5GRMa28vPFq21FT3isXz5N0L5GOXXqUWJbEhFgtLX0HDS23vhPiYnTK5OzqrvOcVVpDcmxnGJkZeQwa3wrL2qVvYS8JC0tjBo5tiXePRqBSce7QbfZvvl4poxyRWESP3gM4enAvoyeob7KjB/cwctwUIm9HAOB//DA1a1sxfMxEFAoFK5YtwKmZC2KxmOSke3y26GsUcgWL53/EjNmfYmVdl7u3Izh9Qh2/Y8uGNQz0GYFtfXsePcxgw5qfmf3pQo0GsVhM5K2bzJrni6mpGWt++o79u3cwd/6XiMQi5n80g269+pdblgb2DWnlqd4b0723bvrI2xF8/uVyzMzNOX3iCHt2bmX8lOma8/n5T9i5bSMz536OkZEx1y5f4PihfQwaNlKTpiA/HwMDQ+bMX0xiQhzfLPqMcVOmM37KdE4cOUDgWX969B1Qqp3rVy7Rb9BQ7BqowxVOmzUXfX0D5HI5n8+ZQY8+AwGIvnuHWR9/gZ6+Pht//5WLAWews3fgxJH9zP50IYaGRly9dJ7tm9cz9f0PS6yPB0n3OLh3Fx9+4ouRsbHOD715tGlL247qnc2njh3iUuA52rTrRHTkHYa8NYphI8dxI+gKJ48epN/gYSUeHzdlGls3/o6ruwdt2nVCJitg5bKF2No1oN+goRzau4uxk6cB6g5p9qcLEIslJMTFsnvHZmZ94qtVJxnpaRp9Z08dJzsri9nzFiASidi68XcCTp/EwNCQW+GhzJrni4mJKX5//cn1q5do6NiEmLt3mLfwqzLvE5FYXGpZimtJTIgrt77r2tjplKlKGxKAy/7RBAXE0XlAU/q+3QITM4My0xub6NN7hCtdBzVHT19CcGAcezYEVcpIpDhe7Tpw/Mh+Hmakk5r8ADNzc60Rw83QG5iYmnA/MQEAfQMDsjIfgUiEu4cXYrGEuPgo6tazxcpavb2+kVMzqlWzQKFQEB15hzMnn0VD042FIaK5qxumpuqgODZ2DWjctDl6+uopnEX16jzOfvUyN3N2xczcHADvDp05eVQ7wn1CXAy5OTns2roJgEJ5oUZTce1t2ql7uXo2dhgaGeHprY4/YVXHmtDgoArZeVZyEZG3b5LyIAmlQqFxmLbr1FVTfk/vDlwIOE1W5iO82nbE0FC94M7Dqx07/9pYanlDgq7i3b4TRsbqEZVUqn076+sbkJaaTEJcLInxsZrRWZ26dalnW/9pmeryMONoqceVSgVRkbeZ+v5sjU03D09u3QylsZP2hj+pVErO42xio6NIjI8t13cVEnwNn+FjNPdLm7YdOXZoH+6tvWjq7IqJibpDtrKuy8OMdFq3aY9UT491q37ErZUnbq08kZQQpqGsMhYnLDio3PquaJkqfR2JvFDByd3hXDgWqdVIaF1UX0LPoS70HuGKiZkBd8NT2L3uKjG3y4+A9TKIxRK69erHsUN7SU5KYujbY7XOi0TQo89A7Bs20skreXpzygpluj4VkQiRSD3qGTPp3XKD6TyzqV0fYrHkqTnt/CXZE4lEpb/xeC798+lEiKhdx5qxk9+rkE6xWIxE/EyrWCJBpVKVbaeYhsSEOLb++Ttt2nXEroEDBobPfDnFHwCJVIJILEaFSqvMKpWqzP1W5f2w218b1qJSqXB1b/V0iqLrzxCLxShKsFN0vKgKn9el/qwt7mLAGa5eDqRNu07YN2xEWEhQUeaSBapUiIoFtlI+97m4FqVCiVQq5aPPFhEfG82l82e5EXSFydM+KLMOdMpYvBwVqO9Sy/T8NcpV8ZLk5crYvf4aX0zexYXjd7WmKQPHujN0SmuyHubx68KTfDf3UJU1IkV4t+/MrfAwDAwNsGtgr3WuaXNX/I8f1jx4cbG6QXEaODgSHxdDaop6B3TM3TtkZT5CLJbQwMGRc/7qgMsqlYqEuBid/BWheg1LUpLVIQ6Tk5KoXkMdD0NPT5/8/CeavwvyS+4VIsJCeJytDhd54dxpmhdzSCqVCmzr25OUmEBivDrYTX7+E5If3H9hnWXZ0dd/pvVmSDCe3u3p1K0XNrb1tX6sPuT6s/1DYTeu07SZC86u7ly5EICsQO1MvnIxgGbObjp1UISLeysunj/Dkzx1ZLtCWbHwmSoVocHXGDPpXVzdPZBIXq7PlEgk2Ds04uql8wAUFOQTfO0KzV3d0NPXI7/Yd3H1ciA+w8fg6d0eU7NnI7TidVIc5xYtNfcNqB9aVzePMvXk5eWqfSnDR3Ev8cXfvhTXUlZ9l1em56nyla2P0nPZ+H0AJ3aHM2SiB65etmRm5HFgSzAXT9yt1Lc9ZSGRSFjw1coSe/luvfuxa9tmvlr4KVKplNpWdTT+lCIMDY0YP/V91q/6EUNjY+wdGmFmbo5EImHMxHfZtvEPLgWeQ6VS4e7hpfERvAjDR09g+6b1iMQiFAoFw0aqgxc7u7qzffN6ho+aQJOmzVnzywqiIm8zedpMrfyOjZ3YvnkdmQ8zMLeozphJ7wLg0qIly5f4Mn3Wx0yaNpPtm9Zp8vQZNJQ61i+2t8nQyKhUOy1atmb75vXUt29I7/6D8fvrT1KSH6BQyDVDaAAzc3M2r1uFQqHExNQUr3YdEYvFdOreix+XL0FPTw8z82q8PXayTh0UYWvXgB59BvLLyq/Q09entlUdRo2fCqhHEO06dWX96p8wNDIiPz8fC4vqL1TOIkZPfIftm9dz/ow/SqWCXv0GUce6HgqFAoVCzvdfL6LPQB86dunBvr+3YVmzNhKJBJFI3U8Xr5P+g9/S2O3Sow97d25lxTK1j8SxsRPeHTpz+cK5EnUUFhby59pfUMjlZGdn0XegzwuXpbiW8VOml1rfRZRWpueptHgkFcXY1IAnubIXXpBUGi8Sj6QyuZcQz6Z1q/hsUfkxXV8HwdcuczsijJHjprxpKQL/QSo8ItE3rJzBS15OQfmJXgAD48qNolYWMlnB095DjIGBIeOeeusFBP7rVLh1qFnnxX8O8XVQ0+rFXjW/Cvr6Bny68J8xAnmeho2aYFvfvvyEAgJVQIWdrc4eNlWp46Vp/g/V9boxr2ZBzVq137QMgf8oFW9IWttgY6/726lvEmePf54mAYH/IhVuSEQiERPndqz0yO4vi3l1I8bMrFhYfQEBgarlhdaR2NjXYOaXPTGr9mY3iVlamfLhV72pXsuk/MQCAgJVzgu/inFsbsWC1T4c2RHClTPRPM4sexlwZVK9lgne3RvRa5gLhq/xbY2AIov4igAAANJJREFUgEDZvNQ7XTMLQ4a/68Vb73jyKC2X3McFVbqwTCwRY1bNEAtL3V9dFxAQePO80uIQkUhEjdqm1HjB3b4CAgL/v/j3RfYREBD4xyGGkneZCggICFQUKZTckPQ/NuK1ixEQEPh3IkpLS1M9ePCA1NRUcnNzUSgUmjgPlbWxTkBA4P83UpFIhKGhIWZPYw3IZDLkcnm5QWMEBAQEipBKpVKMi8W7LCgo0IxKhBGJgIBARZBKpVIMDAwwNjZGJBJRWFiIQqFApVIJDYmAgECF+D91msCqnGe/XwAAAABJRU5ErkJggg==;" vertex="1" parent="1">
          <mxGeometry x="620" y="430" width="274" height="56" as="geometry" />
        </mxCell>
        <mxCell id="yJfsZLbiuFsfr0gUb3lU-13" style="edgeStyle=orthogonalEdgeStyle;rounded=0;orthogonalLoop=1;jettySize=auto;html=1;exitX=0.5;exitY=1;exitDx=0;exitDy=0;strokeColor=#9a1621;strokeWidth=3;" edge="1" parent="1" source="yJfsZLbiuFsfr0gUb3lU-3" target="yJfsZLbiuFsfr0gUb3lU-1">
          <mxGeometry relative="1" as="geometry">
            <mxPoint x="510" y="490" as="targetPoint" />
          </mxGeometry>
        </mxCell>
        <mxCell id="yJfsZLbiuFsfr0gUb3lU-17" style="edgeStyle=orthogonalEdgeStyle;rounded=0;orthogonalLoop=1;jettySize=auto;html=1;exitX=0.5;exitY=1;exitDx=0;exitDy=0;strokeColor=#9a1621;strokeWidth=3;" edge="1" parent="1" source="yJfsZLbiuFsfr0gUb3lU-3" target="yJfsZLbiuFsfr0gUb3lU-2">
          <mxGeometry relative="1" as="geometry">
            <Array as="points">
              <mxPoint x="547" y="400" />
              <mxPoint x="650" y="400" />
            </Array>
          </mxGeometry>
        </mxCell>
        <mxCell id="yJfsZLbiuFsfr0gUb3lU-3" value="" style="shape=image;verticalLabelPosition=bottom;labelBackgroundColor=default;verticalAlign=top;aspect=fixed;imageAspect=0;image=data:image/png,iVBORw0KGgoAAAANSUhEUgAAARIAAAA4CAYAAAAxd3fHAAAABHNCSVQICAgIfAhkiAAAABl0RVh0U29mdHdhcmUAZ25vbWUtc2NyZWVuc2hvdO8Dvz4AAAAtdEVYdENyZWF0aW9uIFRpbWUARnJpIDMwIFNlcCAyMDIyIDEwOjM1OjUwIEFNIE1EVHQQAnkAAB/vSURBVHic7Z13eBTV2sB/M1vSCxBIpST0UAOB0EE6ooChNwUBvSg2vKgoIgoigngvNkQFpBfFgpfeSyB0QicQQgokIZXAJrvZ3Znvj02WLNmEkATFz/k9T57snjnznnPemfPue86c844gy7KMgoKCQjlQm0wmJEn6q+uhoKDwN0bou3WI4pEoKCiUC/X9Cf/rte6vqIeCgsLfGPGvroCCgsLfH8WQKCgolJsiQ5v7kWUZQRAAuHngENHL15B05Bi6W6k86gc+giDgXNULvzatqffscPw6titSJwUFhb+eEg1JQYc13tVxZNpHXF23AUGSMMog8eg7syRJ5KSkErdxE9f/t4U6QwcSNms6GlcXxZgoKDxGPNAjMeXksHXIs+hORmFCBlFEliVExEfukYiiiIyMURBBlklcu4HM6Kv0+XkFKienR1q2goJC6SlxjkQQBA6+8wG6k1Ho1CpkWUaWJJB55EYE8suQQZYkZFlGp1ahOxnFwXc+qBBvJO/n4ei/rI+cdrECaqug8M+lREOSFBHJtXUb0IkCktH4Z9WpWCSjEZ0ocG3dBpIiIssly3xlM1LCITDpMe7/uIJqqFCYxPRs1OHTqTn+s0civ+v7S1CHTyfiYlyxeeq/9F/U4dO5mpTxQHkj5q9HHT6dDYfPV2Q1/xGUaEjO/bAMjSD8Kd5HaZFlGY0gcO6HZWUXIpkwHfz03te4A0jX9z6UiNRsHU6DP0QdPp2tJ6+UvS7loPWUb2n62lelzp+dY8Bh0Axe/X5Tmcq7dCMNdfh0XIZ+RHza7SLHJVmm6WtfoQ6fzrLdp3DSqnmyZT26NQsqU3kVwRNNAnmyZT1cHDUVIi8mOYMJX/9G4AvzcRr8IV6jZ9Nzxo/8cexShcj/u1LiHEnK0ePkySDLj88SelmSyEMg5ejxMsswRy1HzroOagcQVGDMxbh/Ng41O1q+l4LV+89gNJsBWLnvNL1b1C1zfcrCXX0eUbHJ1Pf3KvU5hy7FY66A7RAGo4mZ6/bw/csDbNLX7D/DhYRb1u9V3JzZ+N6ocpdXHr6d2L/CZB2JTqDPR8vJzjHg6eJIq7r+GM0SJ2Nu8smG/TzdqkGFlfV3o0RDkpuWjoyMwOP1dMSMRG5aepnOlQ3ZmCK/AMBhwlEER0+Mm17CHL0J8/mfUDUeVio5y/ecQhAEfCu58vuRS9zJNeDm5ABYPIVryRlsm/Eck5ds5cTVGwT5VObbif1o16AGm45fpv/sVcwd04vMO7ks3XUSg8nM4HaN+e/4J9GqVeSZzLy/aidrDpwhLTuHIO9KvDmgA2O7teDH3acY/9WvAFxIuIU6fDrhbYNZPXkIL3zzG3vPxpJyW4ero5aezevw5QtP8cbizazYexqAb7Yc4ZstR1gwvi8vPxlGaraOfy/dyuYT0ejzTHRuXIsvJzxFoHelEtp/mjcHdKBBviEzmSU+WrfHJk9ieja1JnyGf2V34n74NwBRscm8vXwbERfjcXXU0rtFXRZO7EfX95dwNDqR+c/34ZvNR5g1sjv9wxoWq4PCREYn8uoPm7iYkEptn8p8NrY3vUIshr3+S/8lJjmDS1+/DsDrizdx6loSGXdy8fZ04fnuLZk+9IkHXu88k5mRn/9Edo6BMV1D+PKFp3DSaqxtv52jt+Y1SxKz1u9l6a6T3Lqto2H1qsx9rhfdmtYu97UHeHfFDub+eoANbw9n5b4otp26gpuTAwvG90WjEnl/9S5ikjNoHujL0lfDqedXBYD1EeeYtX4vV5PS8fF05bV+7XjtqbYPbHtpKHlBmiA8dkYEsNSpjJOt5qNfIesz87/kASCbDACYDs0HY84DZZyNSyEqNpmWtf0Y3K4xuXlGfjl8wSZPlk5P9+k/ElDFnadbN+BCwi2Gf7be6sUAzFizm/UR5xjSoQnuTg58t/0YS3aeAGDKj1uZ/3sEXu4uvNCzFdm5BiZ8/RsbDp+nZ/M6rHhjEACB3pXY9/E4PhrRHbVK5Hx8Ks0CfZn0ZBgNAqqy5sAZ3l+1k7fCO/Jm//YAPNMmmH0fjyO8bTCyLPPMJ6tZvf8MXZsEMaZrCAcvxBE+ZzVSMUNa30pumCWJD1bvsqYt2XWCmOQMqrq7FKu36JvpdJm2mN1nrvFUq/oMbNeIqOvJOKjveYEz1uymQ3BNalb1LFEHhXlv5Q4a+FdlaIcmRN9MJ3zOGuJSs4qU7+Ko4ez1FLo1DeK1p9uiVol8tG4PPx968JzIrjMxXL+Vhbenq40RAVCrRKq4OVu/v79qFzPX7yXAy4OX+oSRnWNgwOzVJBQaDpb12hdm5Oc/oc8zMSCsISlZdxn7xS8M+2w9LWv70aVxIEeiE5i8ZDMA205dYcT89ej0ebzUJ4zqVT15c8mWCpsPKvnx72M0N1KEMtRNzr6B6dTSewnGXMt/k+W/rLuF6cR3qNu8XqKcZbtPAfBUq/qE1Q1gwf8Os3JfFM91DbHJ98noHvyrd2sALiamci4uhYsJqdbjvpXcOD5/Im5ODnQMrsnguWvZERXDoHaNWbTtGD6erkTMmYCTVsMLvUJp9vrXzFy/l9P/eZmQID8AnLQa2jesaZV5ZN6L1s9HoxNp9853HLt6g4YBVQnyqWwtt+CczSeiibycwPgeLa3DAN/KbkxfvYv956/TpXFgkfaHBPnSxOzNL5EXOHUtiYbVq/Lx+n14e7oyuktzPvvtoF29/WdjBHdyDcwa2Z13Bnayn2fck4zpGkJadk6JOhjYtpH1nNefbsecZ3sCEFy9GlNXbOerTZHMG9PbRrZvJTerZwRQ2c2Jd1fs4PjVGwxq14iSOBdnGbI1D/S1GpGnZ61ky8loa54Nbw+nU6Na/PePQzQMqMq+j8ehEkXC2wbT6d0fWLLzBKF1/K11Kcu1L9zuge0asey1gQCcjLnJpRtpzB3Ti8n92pOl0+M1ejYRF+MBmL56N4IgsG/2eAKquGMwmvB+bg5fbTpiI7OsPHAdSUnYWxRWkFYwQVtwvHC6INzzKGRZLtbnqehFZ6aIT61eCICsSwGnSmDIvpfn+CJUTUYiuFS1L8MssebAGQA6NqxJg4CqOGrU7DsXS2J6NgFV3K15W9X1t372reTGubgUUrLuWtPq+3tZh0O+ldwASMm6y6XEVExmiQ7BNa03bXD1avhXdrMeK4607Bz+OHaJo1cSOXUtCbC45cVRkGfNgbP8Gml5DG4wmgCIvplm15AAzBzZje2nr/Leyh30aF6HGxnZfDa2N9k5hmLLOnM9BYB+rYufSwgOsOj9YXTQs3kdm89TV2znbFyKXfnRN9P53/FLRMUmc/iSpZOVpJ/7UYn37sdB7RrRqq4/W09d4Wh0ImAZauaZzMQkZ+A3di6A1bOLvpluNSQVce2b1vKxfg7w8uDSjTSa5ad5ujiiUam4k2sgN8/I2bhkAFpO/sZ6To7ByJWbaaVue0mU2ZBYDUP+Gg8AUaVCVKmQzGaLcRAEZLMZBBFBzDciomVxmUmvt+RXq5HNZu73LwRRtBgRWS7zMKYwUsoZzJc22qTlbRgJotp2OGPMwXR4Ppruc+zK2XryitUYdJu+1ObY6v1RvPVMR7vnFbSguOFCQRMLH7/fiFqNMjKiHZ1cv5VF6JvfYJZkhnZozBNNAjl+9Yb1uL1zcgwWwzrpyTAm9gmzOVbJxdFuXQFa1vanX+sGbDx6iYhL8fhWcuPFXq2Y96t9bwRAtHbC4q+nSmW/zfd/lwvdMYU7d0F2e239NfICQ+eto0ZVD8LbNKJFbT+upWTaqV9RgqtbDNzp2CSMZjMalcrqgWbp9FZDojNYlkm0qV+d5a8PspHh7KCxGi/bNln+l/ba28Nee0VRALPFUOaZzDho1ByfP9FGtqqENj8MZd60V+BdiFotWjc3NM7OSCYTeXfuIogiMiBLMmpnZ0SNGlmSEEQRs16PLEl4BNbCwdMDyWhC5eiIxtkZrasrGhdn1I6O97yaCvJITPs/hvsugsOIjThOuojoazt5Zz63Hjk9Gnss22MZ1rzYqxW7PhrLro/G8sWEvgCs3BtVIXWtH+CFShQ5dDHe+mt5+UYaienZ1Pf3QqNS4e5s+TXL0uVaz/s18gJZOj0Lxvfl24n9GdahqY3cgnMy7947p0VtyxAp4lI8AVXcrX/uTg64OGpLrOeHw7shCAI6fR5vhXe0mTewR0igLwA7o65WiA4K2H/h3jqSHVExgO2vdQHL9pxCkmV2zXyeuWN60bZBDZvjrvnttedVdW9Wm+peHtzMuMN7K3badPrCT8Ka1fJBJYpExSbj7KCx0Wdl1wevxn6YdpcWB42a4OrVMBhNXE1Kt9bJx9MVD+fifywehrIPbUQRQ0YmzV95kZZTXkfl6MjdxBtEzphN3NYdqJ2cELVqBu7bQuymbRz897toXF1xrR5A98Vf49M6FLPRyKbwEYROfZNqzZuRm5mJ1sUFUa1mwxN9yIy+itrJqdxzNVLMDqTEogvYZJMewWQA6T7XVjZjPDAb7YAfbZIz7uay6fhlREHgnYGdqO7lAWAZF288xIWEW5yOTSpXXQGqurswoWco3249Spdpi+kUXIv1B88iyzLTBncBwMfTlYAq7iSmZ9N/9ioGhDXEM9+DOBKdQB3fyizcctRGbsvaFrf6tyMXGbNgAxN6htKvdQOa1PTm4IU4uk1fSseGNbmanM7es7HELJqMg6b4W6RJTW/mj+1NYlo2L/QMfWC7JvVtw7I9p3h72XYuJqZS2dWJ7aevcvCTCWXSQQGfbthPQloWsgwr9p7GSathUt82RWR65neaXVHX8K/ixqp9toY/tE4AP+w4wZwN+4lNyeSjEd2sxxw0ala+MYinZq3k840R/HzoHI1qeJN2J8fG6/P2dGV8j5Ys2naM9m9/x8B2jcjS6fkp4hybp49+oI4ept0Pw7QhXRgxfz0DP13DmK4tUIsiW05GM6ZbC+skfHkon0ciSWjc3HD2rkbMr3/gWt2fbt99gWPlyhjv6vAICsQjsBa+bVujdnbGqNMRNv0dfFqHcnbREi6tWIvWzY2YXzYSt30nbv5+ZMfFc37Jcoy6HASVqkImfI0R8+ym560ZgP7LekgpRT0JKXYP0k3btSo/RZwjz2SmT8t6ViNSoItxPSwdafW+M+WuL8D8sb15o187ElJvs+CPwzhq1Xw7sT+D2ze25vl2Yn/q+VVh68krbDkZzaguzRjdpTmr959h9H9+pp6/l806kzq+lfl4VA/cnR1Yc+AsJ68loVGp2PHhWMZ1b8nlxFTm/XaQU9eS+Fef1qWq56tPtWXumF4lGpwC6vlVYe+scXRpEsiqfVF8t/04gd6VyDHYXzVdGh0AfPpcL45eucHKvVHU9/di43sjbeaqCvhoZHc6Btfi9cWbmLpiB2O6hti4+aO6NGNI+8YkZd7h681HipzfvmFNjs+fyPPdWyDJMjujYkjKyKZPi7qseXMIfVrWA+CLCX2ZObI7MjLzf4tg0/HL9GvdAN9KRetUnnY/DEPaN2b9lGHU8/Piu23HWLbnFDWqetK5Ua0yyyxMkVCLhSOkfe9dwopEUUSfnkHLt9+g7YfvsTw4lPpDB9Lmw/fY0LUv8Xt2EzLpZTp/MQ99egbr23VDl5zCqLNHMRsMrGjQAtFBi4OHB7qUJLwaN2ZkVCRHZn7K/hnvUqla/iRfCcObCSnXStXIvHUDixiFB6J2Qjt4LaJP84c7T0HhH0iZhzaFLbkgiqg0agy3swvlkPFu1RIpLw8HT08qNahH1rVrmHJ0OHp54Vrd3+J1iCKO7pVwrFwJBAGNiwvOjlUQVCokk6lCntpoh26wPK15GO9GpS71KlcFhX865Y6QVtDRfcJa0XD0cIw6HVlXYtC6eOATFkrS4aMYdTp8WodiNOu4sGw1zlW96PLV50hGI5LZjCxLSCaz9SmNnL9oq0Ljjai0liXxpf1TjIiCQqmpgFCLls7e/Yev8axXh10TXiE3NRW3gAA86gSRuO8gOSkpVAsNwUHrwdlvF3Phx5UEPd2Hrou+wKy3LC1WghQpKPx9KdeCNAAh/zl0TmoaktFI4n7LOgLP+nUQVSpi/9hCpQb1qN6lI1pXVwSVij0vv4nG2YX6wwaRHHmMUwu+skysKigo/C0pv0eS70lcXrUOVz9f6g4agN6QiU+rlsiyjH+n9jh4euDsXQ3XAH8kkwmNizMH3pqGPjOLBqOGIggqS8AkBQWFvyVlNiQFq1lls2Vla/zOPeTcSqXBqGGocKBq8yYgy7SbPYOAzh2RJYnKjRpiysnBeFfH3cQbGDKz0Hp4WEIqyrL1r7B8BQWFx59yPbWxdHbLUvmc5BSu/PwbzV6agG9oa7yaNyXpyDF+6zUAn7BQwnf8gWed2jQa9xzutWpizjPgEVSL6LU/YzLnIapUCIJgsx9HMSUK9nhcA3/n6HRoHbSo1RUTRKksPErd3L6dhYeHp91j5fJIChalSSYTolpD9JqfMOfl0fyNl3HyqkJSRCR5d7LJuHAZfdZtqrVoiqhW03LKa7R+7y3Sz1/k2JzPUTs4IZvNSCYTstlss+mvPGSkpzFp3Aj27txWbln2MJlMLP9h4QPzbd/8O4nxxYcD/P9KadpdWh0WsG7lEs6ePlHeqrHk2y8e+pz3p7yCwaAv9viSRV9wMzGhPNUqFyuXLuL82dOPTP7H708p9ljZJ1slCa27G1fWbSBh117u3riBWW/gpw49EEQVUV98S+6tVJyrVkMyGvnliScRVCLZ1+O5dfI0Wnc30k6fJU+nw9Hdg+zYOH7q0BN9ZiZad3eogDmTyIP7aBoSyrHDB+jSvVe55d1PZkYaurt3HpjvZmIiDYKbVHj5jzulaXdpdViALFWMn1oWw/7+x5+h1TpUSPmPgorSTVko1+5fUaVCn5FJzq1UVFotgiiSefkqBZvjRI0GMf9pTHZsHCCjcnAg7fRZJMmMxtmyQQ9ZwpyXR8bFS4hqtWVHcDldNFmWiYzYz8TXprBwwVxupSRTzduHtFsprF25BB9ffxLiYsnNzWHMhElotVq76X4B1UmIi+WXdausISefGTISbx8/fl6zgsSEOFYsXkjXnk8SF3uNiP27EVWWyeOxL07iavQlrly+QG5uDjVrBfFk/4Ec3LuLk8cjERCoUSuI/oNso7LZK69mYG3WLl+Mk7MLZ6NO8PyLr+IXUB2gSLo+N4dNv29ApVLh4OjIiDETcHJytikjz2Bg4YJ5mMwm8gx6QkLD6P3UM8yaNoXO3Xtx8mgk2bez6P30AFq16cCy77+mZmAdzp4+wd272dSp14DBI8YgSWb++GU9V69cRgBqBdVhwODhHIuMsGl3995PFSmvS7feRXTo6ubOupVLMRmNmCUzA4eOtrazgKvRl9i9fTPGvDxqBtVh0PBnMRmNdtsjyzJb/viFi+fOIIoqWrRuw+3MDDLSU1mxeCHBTZrTrEUrflm7gtTUFIx5eXTq2pMWrdoU0evCBXOZNmseKUk3Wb/qRwRRJM+g5+nwoTRuahuLpjDHIiPYt2sbKpUaF1dXhj87DoDFCxfg5OyCu7sHw58bb82/dvliEhPikCUJz8pVGPviK0SdPMbF82dISkygfZduhLQMY93KpWRmpCPLEs8MGQlATPRlDu7dSVZGBrVq12XY6OeJv37Nbn1vZ2Xa1fWh/XuK3MdVvKqV2N/KPUciqtWIGo111ajaqdBuwkKTpypHB2ua2tUZgfwQBPmehyCK1g16FTHOi750AY1Gg69/AI2bteDY4YP0HTAIQRSJib7MM4NHMGj4s5w+cZSdW/9H3wGD7KYPe/Z5fli4gImvTcHH15+0Wyl89fkc3ps5l779B7Lpt58ZPW4iAFW9fWjXyRK2b9e2TURG7Kdv/0GcPBpJ3/4DqVEriNiYK1w4d5pX3nwXQRBYs+wHLpyNIrhJMwDy8gzFlieKIsk3E3n3wzmI4r3H5YXT8/LyWDB3Jq9OmYaTkzPHjxxi+6bf6T9ouI1+tA4OTHx9ClqtAyaTiWn/nkSPPv0wGPSIgshrb03j7p1s5s58n1ZtOiCKIvHXr/Hy5HcQBIFPZrxDetotzpw6Qfbt20zOf0XI6mXfc2DPTjp362XTbsBueffr8Ov/zKFf+FCq1wwkMyOdpYu+ZPLUGTZ1j7lymdffeh+NVsuy77/m8IG9tO/c1a78wwf3kpqSzOSpMxAEAZPJhFqt5tCBvdYyt2/eiFc1b4aMGovZbGb+7A9oENykWH37BdRg8tQPEEUV8ddj+WXdimINSUL8dXZs2cjkqTNwdHTiWORB1q5YwvDnxhNz5TKTp84gsLZtvN/wYaOsns/CBfOIvRqNKIpcvnCOtz+YjaurG0sXfUndBsF06GzZWGg2m4Fd3M7K5IVJbyIIAh9Pf4u0WynF1nfl0kV2dR3app3d+7gkyrWOxNrZC89n3De3YTePJFvjKtgYDNlOWhmJPLiXFq0sO0CbNG/B2hVL6DvAogwfPz/8q1sihHn7+JGRvrXY9LjYa/j4+uPja9k561XNmypeVUm6UXQsrNU6kHormfjrsSTExeJuZ2Lqwtkosm/fZuWSRQDcvXuH7Ox7IfhKLE8QCAkNs7mpAZv0+OvX0N29y8+rlwNgNBlxdXUjLjaG9at+BKBthy506NINAYHoS+dJSbqJZDZjMlk2z4W2sbwa1dXNHYNBb/0xaNEqDFG0TKtV8/YlIy2NqFPHCR8yynrN2rTrxLZNv9O5W9GhZHHlFWA2m4mJvmwzp2XvXmjfuSsarWXLf+u2HTl0YA/tO3e1K//ksUib+qnVRW/582dO4+Lqwo0ES6wQrYMDt7Myi9W3Wq3m7p1sYmOukhAXW+K8ydlTJwhr1wlHR0sIgdCw9vy0ahkCApWreBUxIgAajZb469e4kRjPnezbGAx6BEGgfnBjXF3dkCQzly+eZ+yLr1jPUeV7/oWvkbePHxkZaXhV8y5S35J0XZr7+H7KvSDtcUSfm8vpk8eoXqMWsdeuIEsyt7MyiY25UkQpoijajaxuTZeLBhGSZSnfI7M9Z9XS75BlmaYhLfELqM7dO/lj/8LnC9A0pCU9nywmunkJ5QGo7HSEwukCAtV8fBk97l9F8kyZNtP6OSH+Oqt//J427TtRo1YQDo7241JY2lmcfswgy9ZFiWAJzmP9XqgdxZdnG5RIEAVGPf9iiT8mqkKLF1VqFYIoFitfkiS7ez5t9ooJ0KNPP7ud2p6+Dx/Yy7EjEbRp35nA2nU5G1X85K9836ttLTF2ipdtMOj58rPZNGzclNp161O5yr3d22qVOl+GRbJdCgctUquRJdlufUvSdbH3cQlUwBL5x4/jRw9Rr34wk6fOYNLkqbzy73fp2acfRw8feGhZNQKDuJGYwK0US6i6lOSbZGVl4utfHY1Wgz5/ib8sy5w5dZxRz79I05BQVKp7N4lWq0WvtwQTatioKYcP7kOns0RZS09L5U52dqnKKw3VawZyMyGehLhYAPT6XJKTbhTJdz7qFK3bdqBzt14EVK+JsYwvQGvcrAX7d2+3fj98YC9Nm1tCKhRud3HlFdahKKqoFVTHKk+WZeKvF93hHXXy3k7us6dP0jC4SbHym4WEsmvbZqtXZcyzRIQTKBgOWK7J7u338lyPjSmxzceORBA+ZBSt23bA1c3Nmq7R3GuvVT9NQzh66AB5BkuwpKOHDxDcuPgd5Ynxcbi5e9C3/yAaBDcp4rWBxZAG1anHoQN7rHqyl6+k+han65LuYwDp/tg9+fy/9EgiD+5jwGDbOYEOXboxZ8ZUuvbs+1CyHBwcef5fr7Bq6XcAqFQi4/71Kmq1mmrevpjNJv4z50P69AunfeeuLPn2CxydnNDr9Xh6Wl7n0KxFK9auWELNwNo8N/4lnujehwVzZ6JRa3BwcmLY6HG4ubs/sLzS4OjkxPMTX2Xt8sXWtD79B1qHSgWEtApj/aofSUlOwmw2WV3vh+WJHn347afVzJ9tmSOpU68BbTt2KdLu3k8NsFve/TocNfZF1iz7gciI/ciyTEhomHWOpQA3d3dWLF6I2Szh4upKWPtOpN5Ktiu/c7ee/PHLT3z28XQ0Gg0tW7el4xM9CGnVhnkzp9GqbQe69e7Lz2tW8MmMqfnX1YeRY14ots2dnujB7xvWUMWrGiqVCkGw/B43bhrC2hVLGDJiDA0aWZ5W1QysTefuvVgwbxYajQY3dw+GjR5XrOwatYIQRZFVP36HZJYw6O3HwB3x3ATWrVxK5MF9CILAgMEjHrq+xem6uPu4SbMWzJs1nZdefws3dw+bMkqOR+JT+/GNJC8ITEgu+ZdDQUHhz6HkoY0sFxts9q9EtrzF/K+uhoKCQj4lGhLHKpVRPYbTKCpEnLyq/NXVUFBQyKdEK+HbpjVawbLG43FBEEW0Ani3fnCwYQUFhT+HEi1Eo3HPYnzMNkgJgoBRlmk8/rm/uioKCgr5lOyRtG9D0NCBuEiyZfXqX4yo0eAiyQQNHYhv+6KvG1BQUPhrKNGQyLJMhzkf4tKiGS75MVUFUcTyDu9H76VYXu157617LiYzLi2a0WHOh0q8EgWFx4gHTn6onZ3pvX45AcMGohYENJKEIFlWDD5qpPyyNJKEWhAIGDaQ3uuXo3Z2fvDJCgoKfxolrnIq2JincXWhw38/JWhgf6KXryHpyDF0t1IfuVcgiiIu1ariG9aKes8Ox6+jZQ/I4xrYRkHhn8oDl0sW7rB+HdtZO/NfiWJEFBQeLx6f57oKCgp/WxRDoqCgUG6K7LVRUFBQeFiEnTt3yjqdDrPZbH0SozxaVVBQeBjUbvnxCfLy8jCZTH/KY10FBYX/X1gNicFgsHolikeioKDwMKidnZ0t+1eMRsxms83b7hQUFBRKg9rFxQWNRoPRaFS8EQUFhTKhdnJyQqPRWI2IYkgUFBQelv8Dh8udEP17PYYAAAAASUVORK5CYII=;" vertex="1" parent="1">
          <mxGeometry x="410" y="300" width="274" height="56" as="geometry" />
        </mxCell>
        <mxCell id="yJfsZLbiuFsfr0gUb3lU-16" style="edgeStyle=orthogonalEdgeStyle;rounded=0;orthogonalLoop=1;jettySize=auto;html=1;exitX=0.5;exitY=1;exitDx=0;exitDy=0;entryX=0.5;entryY=0;entryDx=0;entryDy=0;strokeWidth=3;strokeColor=#5a408b;" edge="1" parent="1" source="yJfsZLbiuFsfr0gUb3lU-6" target="yJfsZLbiuFsfr0gUb3lU-11">
          <mxGeometry relative="1" as="geometry">
            <Array as="points">
              <mxPoint x="207" y="330" />
              <mxPoint x="377" y="330" />
              <mxPoint x="377" y="216" />
              <mxPoint x="547" y="216" />
            </Array>
          </mxGeometry>
        </mxCell>
        <mxCell id="yJfsZLbiuFsfr0gUb3lU-18" style="edgeStyle=orthogonalEdgeStyle;rounded=0;orthogonalLoop=1;jettySize=auto;html=1;exitX=0.5;exitY=1;exitDx=0;exitDy=0;strokeWidth=3;strokeColor=#5a408b;" edge="1" parent="1" source="yJfsZLbiuFsfr0gUb3lU-6" target="yJfsZLbiuFsfr0gUb3lU-2">
          <mxGeometry relative="1" as="geometry">
            <Array as="points">
              <mxPoint x="207" y="370" />
              <mxPoint x="757" y="370" />
            </Array>
          </mxGeometry>
        </mxCell>
        <mxCell id="yJfsZLbiuFsfr0gUb3lU-19" style="edgeStyle=orthogonalEdgeStyle;rounded=0;orthogonalLoop=1;jettySize=auto;html=1;exitX=0.5;exitY=1;exitDx=0;exitDy=0;entryX=0.25;entryY=0;entryDx=0;entryDy=0;strokeColor=#5A408B;strokeWidth=3;" edge="1" parent="1" source="yJfsZLbiuFsfr0gUb3lU-6" target="yJfsZLbiuFsfr0gUb3lU-1">
          <mxGeometry relative="1" as="geometry" />
        </mxCell>
        <mxCell id="yJfsZLbiuFsfr0gUb3lU-6" value="" style="shape=image;verticalLabelPosition=bottom;labelBackgroundColor=default;verticalAlign=top;aspect=fixed;imageAspect=0;image=data:image/png,iVBORw0KGgoAAAANSUhEUgAAARIAAAA4CAYAAAAxd3fHAAAABHNCSVQICAgIfAhkiAAAABl0RVh0U29mdHdhcmUAZ25vbWUtc2NyZWVuc2hvdO8Dvz4AAAAtdEVYdENyZWF0aW9uIFRpbWUARnJpIDMwIFNlcCAyMDIyIDEwOjMzOjU4IEFNIE1EVE9A048AABq1SURBVHic7Z13WBRX18B/W6hSBaUt1V4QRRR7wV6iEVtM1GjUGBOTGBP9NHljNIm+pvhG02yxxB5rir0iqBQRpYoCIoLSe4ct3x+rqysgoGCJ83seHnZum3PvzJw5t50RqVQqFQICAgJPgPhZCyAgIPDiIygSAQGBJ0ZQJAICAk+M9MEDpVKp+RMQEBCoKRpFolAoKCsrY6zvlGcojoCAwIuIFEClUqFUKiksLKyQ4OCgP566UAICAi8WYpVKhUqlQqFQUFRU9KzlERAQeAERg9oiKS8vp7y8/FnLIyAg8AIivdetUSqVj61IVCrIySikIK8EpbL+1reJJWKMTfUxszCst3MICAjUHo0ikcvlyOXyWmUuyCvhyK5QgnxukJddXE8iVqRhYyO69W/KgDGu6BvoPLXzCggIVI7WYKtCoahxxhtX0/j1y5Pk55TUm3BVkZVWwMEdVwg8E8d7SwZgY2/21GUQEBC4j2ZB2j1lUhPu3Mxm1WfHnokSeZD05Hx+WHCUnMw6GiRWylGV5NRNWQICLxGawdZ7f9WhUsHG785SUvx8DMzmZhWx7cfzdVJW2f5JlK73RJVxtU7KE6g9568mIPVeRK9Pf3uiclq8uxKp9yJik7NqnXf72VCk3ouYvHIvAK+v2I3UexH7/CMBiL6dgdR7Ee0+/PmJZPw3Uesl8hEXE0m8UfuLU5+EByWSFP9kMiliDqNMvADyEsp9l9Y6f3peIQZjlyD1XsTRkJgnkuVx6TxvTa1u7ryiUvTGLOaD9YfqUaq6Y+2xi0i9FyH1XoTu6C+wnLSMTp+s5pNNR4m+naGVtq+rM0M7NqeB/qPH0A4FX9NSEgAyCxOGdmxOexebeqnHvxFp9Um0iQhOqg85npjI4CRkzg0fL7NSjvzcN/cPE/xQ3vRB7NSnxkXs8A2j/O4Y07azVxjs3uzxZHlMCkrKCI1PoYWdZY3zXIi+heIF3A5h19CEXm2cyC0qITwhlZX/XOCXw4H8OGMYMwZ6ALBm1sgalXXuakKFsN5tnend1rlOZf63U2tFkplaUB9yPDEZKY8vlyJ0C6qcmyDVA5EEyosp912GnmNP9XEN2HLmMiKRCBtzI/4KjCa/uBRjAz1AbSncSMni2OI3mbvxKJdib+Ni3ZA1s0bQraUDh4KvMXLZdr6dMojs/GI2nQqhVK5gbLe2rJw+FF2phDK5gs+3n2SnXxgZeUW4WJnz8as9mNrPnc2nLzP95wMARCWmIfVehHfX1uyYO463f/0Tn/B4UnMLMdLXZWD7pvz09nA+2nCYrT5XAPj1SCC/Hglk1fRhvDfUk/S8Qj7ZdJTDl65TUiand1snfpoxHGcrc606yxXKKss3a6Bfbb0BfCNvMnfjEaIS03BqbMakvh2qbWs3Z2u2fjRGc7z3QiSTV+5l9rqDdG1hT1tHK1q8u5K4lCyif5lDE2tzvth5mk2nQsgpLMHe0oS5I3uwbI8PtzJyARj/nXoFd+jK2VyJT+bNVft4vVc7tswZU6kMAtrUumtT+pyMjTzM48qlKs1DHvAjAHozgtCffRVJ86GoMq+hiNxTozLCE1IJjU+hYxNbxnZrS3FZOfv9o7TS5BSW0H/RZmQWJrzSuSVRiWlM+H63xooBWLzzNLvPRzCuhysmBnqsO36RjScvATBv81FW/HUeS5MGvD2wE3nFpcz45U/2+UcysH1TzYPlbGXO2aXT+PL1/kglYiJvpePmbMPsoZ60lDVip18Yn28/yXzvnnw8sjsAo7q05uzSaXh3bY1KpWLUf3ewwzcML1cXpnh14FxUAt7Ld6B8aAztUeXXpN53svIZ/vVWwhNSGd/DlfbONizeebqWVxDGdGvD1H7uKJRKNp++XCF+n38Uy/aepaWsEXNHdsO9iS3peYXs/GQcXu1cAFgyoR9nl06roCwFakatLZJ/G4qgn1GVZN89KANAJS8FQH5hBZIWI0Dn0Qvgfr978w7v1ALPZjJWHfRn29lQ3vTSfrv+d9IA3hncGYCrSelEJKRyNTFdE29jbkzwilkYG+jRs7UjY7/dxYnQOMZ0a8vaYxexNjPi/PIZGOjq8PYgD9zm/MJXu3248sN7dHCxBcBAV4furRw1ZQZ+N1PzO+h6Et0WrONi7G1ayRrhYt1Qc957eQ5fuk7AtUSmD+io6R7YNDRm0Y5T+EbepM9DJn9V5dek3rv8wikqLWfZpAHMH9UTgI83HmHVQf9HtndldGlhz9pjF4lKTKsQF5eiHj97pVMLPhjeVSvO0lh9bVvKLLXaTaB2PHVFItWR4NrZHtdOMtLu5BHkc4OstGfTXVLl3UZ+edP9gPK7i+rk6v+qwjTkl9Yh7TKnyjLkCiU7/cIA6NnKkZayRujrSDkbEU9SZh4yCxNN2k7N7DS/bcyNiUhIJTXnft1b2FlqukM25sYApOYUEJ2UjlyhpEdrRwx01YOHre0bY9fQWBNXFRl5RfxzMZqgmCQu30gGoExe9Xqhe2l2+oVzIEA9e1Varl6oeP1ORgVFUpPyq6p3WEIKAIPa3x9PGuze7LEUSXFZ1RbpSM9WfLvfj7kbj7DmaBBT+rnz4fCu6Om89O/ROuOptKRIBE3bWOHp1ZSOvZwxbKCLUqFELBHz6hQPYiJSCDgVS8i5mxQXlj0NkQCQn/9GY4UAqApTwcAcSvPupwlei8T1DUQNGlVaxtGQGI0y6Ldok1bcDt9QzZv2YUR3/z/cXdDEiyrGi+4FPnSsQoX4oTiAm2k5eHz8KwqlivE92tLX1ZngB6yFyvIUlarbY/ZQT2YN8dSKM2+gX6vyK60XFeulI73fw37ch9s/OhFQK9iHaWlnSeiq2fx8KIDfT1/m060n8I28ycH/TEIsrtgGD/Nwmsra7WWnXhWJtb0pnl5N8ezbBAsrI5QKJVGX7xBwMpbQgFvYN2lIl7vKZfKcHkx4tythgbcIOBVH5KUkFPL6m1FQpoahiP5bK6xs3xsglkL5AwvcyouQ+69Ap//ySsv5/Yy6WzNzUCfGdW8LQGRiGh+sP8Q2n6oVSW1oIbNEIhZz4eotyuQKdKUSrt3OICkzj9b2jdCRSDAxVFsyOYX3tyocCIgip7CEje97M7lve0LjU/juwDlN/L082QX387g3UXeRzkffYunEAZrwvKJSGujraslVXfnV0ca+MUdDYvC/lqhRAEExtZ8V3OkXxrazoUjEYqb2c68Qr1KpkFmYsHzyQJZM8KLTJ6s5GhJDQUkZJgZq5ZhdUPXiSqO79c4rKtU6zi8urbWs/1bqXJGIRCJ6D2tJt4HNcGymnopMjMvk9F+RFfbkxEWlEReVxh9rAmjbyR5Prya4dXGgY09nCvJKCD4bz/G94WTWQ9dH7rsU0LYG9F7/G5FlK8p2jUKZHKIJV0TsRtrhLUQWzbXSZxUUcyj4GmKRiAWje2FvaQpArzZOrPz7AlGJaVyJT35iWRuZNGDGQA/WHA2iz3820Ku1E7vPhaNSqfjP2D4AWJsZIbMwISkzj5HLtvOqZyvM7loQgdcTaWrTkNVHgrTK7dhE3eX4M/AqU1btY8ZAD0Z0bomroxXnohLot2gTPVs5EpuSiU94PHFr52pZDNWVXx3vDvXk58OBzN98jLTcQpRKFd//Wb0iCk9I5e1f/yS/uIzIW6lEJaajI5GwetYI2jhUtEjWnwhml184nZvJMNTTITEjD8dGZhjp6+LR1I51xy/y9e4zBMUk8vUbAyrk92gq47cTl1i+z5f41GyWTPBCZmFCYkYuE3/Yw7tDPDWzUC8rde6zdcyMzkx4rysm5gYc2xPOkncO8PXsvzh5ILLKjX1yuZIr/gmsXXqaeRN2sm3VeZJv5dB7eCs+/WkEenW8MU8ZdwJlUkCFcJW8BOSloHxoDEGloNxvWYX0e85HUCZXMKRjc40SAbUynTZAvZ5hx9mwOpF5xdTBfDSiG4npuaz6xx99XSlrZo1k7F0rCNRrJ5rbWnA0JIYjIdeZ2MeNSX3as8M3jEk/7KW5naXWOpOmNg1ZOnEAJoZ67PQLJ+RGMjoSCSeWTGVa/45cS0rnuz/PcflGMu8M6VxBpurKrw7HRmYcWPg6MksTluw6zZYzl5k3qke1+RIzctl4MoS/g6IpLVcwfUBHLv1vFlO8Kp86bmnXCIlYzG8nglm+zxcXa3N2fDwWgNd7t2NCz3bkFpWyzSeUO1l5FfJP7OPGuO5tSc7O55fDgYhEIn59ZwQuVubsOR9J4PXnc23V00Qkl8tVZWVl5OXlcfv2bRalf6OV4GEPaSvmH+Z6eEqVBX78zRCat7Mh1P8W/qdiCQ9KRF5e882AALZO5nTxakL3Qc0xMtFnyTsHuJOQ/cg8nn2b8Nb83jUqv3TLQFSZ12olE4Du+H2IbT1qnU9A4N9O3Y+R3B2IcuvqgFtXB4oKSrnkd5PA07HERqZS1XYe04aGdOrjQpd+TbF3UU9LFt0beK3jsS2RnjG19poiNVCPnwgICFSg3p8MQyM9eg5pQc8hLchMLSDwTByBp2NJScxFT19K+26OdOnXlJbtbRGLRWSlFXB0dxgBp2Jp7W7HuJme1Z+kluiO36eeranNRwYl0hqvchUQeNl4qq9YCysjhr7mxtDX3LhzMxsLa2P09KUUFZZx4XgMgadjiYlI0Tzfrd3tHl3gkyDRrT6NgIBAjXhmtrqtkznx19I5vjecsMDaj6MICAg8PzzTTn+I301Czt18liIICAjUAcInOwUEBJ4YQZEIPHOq8syXm/t03F7WxDOgwKN5qRRJVmYGs6e9js/JY/VSvlwuZ8tvq6tNd/zwXyTdquhQ52Xkj20bCb9yqdK4pZ/Pq7PzBJw/y/4/tgEQe/0qvqdPAOp74ruvP39k3tUrv+WLBXNY9sX/sWThR6z98Xuio8I18SePHmTBnHdY9sUCli9eyLIvFrBnx+8oH1rY+MWCOaz/5QetsPkfzCDwgm+Fc+bl5jBn5mRu3bzxWPV92tT5GEldftfG0Eg9s6JS1E2ZAefO0q6DBxf9/ejTf1CdlPkg2VkZFBbkV5vuTlISLVu71vn5X0RU9fgdpAfp3LWH5t5MS0mhrOz+PpmaWCQTJk/TXLOE+Dj+2LaJ5NtJ9B0wBIDuvbx4xXscAEqlkh+++ZIbsTE0bd4SgJhrVzE1NePmjViKi4owMFS7LxCLxZw4/A+duvRALL7/Xj959GCNnbE/D9S5Iom6lERLtyfzdWnjYMaoqR64dXEg7U4eqbdzn1gulUpFwHlfZn04j9WrviUtNYXGVtZkpKWya9tGrG3sSEyIp7i4iCkzZqOrq1tpuK3MnsSEePb/sR2VSn2hR417AytrW/bu3EpSYgJbN6zGa+BQEuJvcN73NGKJBJVSydSZs4m9Hk3MtSiKi4twdHJh6MjRnPM5RUhwACJEODi5MHLMaxq5/9m/mwZGRngNHArAsYN/olAqGDz8Vf7Zv5vYmGuIACeXprw6dgLpqals27yOjxcuBiA6KpwLvmcY+/qbbFi9CgPDBpiYmDLhzemac+zasoGkxARUSiVmDS2YOvN9ysvK2LBmFUqlEolEwsjRE7CwbFQhTObgWKn8F/zOkHQrgbTUZPLzcjExNaO310CO/HOA0pISPLp0Y/DwUQDEXo/m9PHDlJeV4ejSlDETJms9VFW1wdARowH4fuki3pjyNjZ2Mm7eiOW7rz9n4eLlyBwciQi7TEhQAM1bteZOUiLunbvi56N2vJR8O5HBr4xCXl7Ovl1bSb6dRG5ONm/OeA+ZQ9W+SRydmzDjvY9Y+vl8evatuDenrLSU0pISDAzu+7EJOOdDR89u3IqPI+RiAN17ewEgkUhxdHYhOPACnbuqtwcUFOQTEXaZZi1b1+DOfj6oc0VybE84OZlFjHyzIxaNjWqV18zCkBGT3Ok6oBmoVPgeiubvrSF1YuVcj45CR0cHGzsZbd3cueh/jmGvjkEkFhN3/Rqjxr7OmAmTuXIpiJNHDzLs1TGVhr82+S1+W72KWR/Ow9rGjoy0VH7+33I+++pbho0czaE/9zJp2iwAGllZ061XXwBOHTtEwHlfho0cQ0hQAMNGjsbByYX4uBiiIq7w/sefIhKJ2Pn7b0SFh9La1Q2AXv0Gsurbr+g7YAgikYjgoAvM+nA+Z08dJy83l7kLvkAkErHj9/X4nTlZpaUjEouJi7nG3IWLcW6i7U/W+7WJ6OqqdwKvXvUd8bHXSU1NxsZWxujXJmnSnTt7qkJYVfKLxWKuX41kzoJFGBkZs/bH7/l7/x/M++wrRGIRn308m36DhgMQF3ONOfM/R0dXl9/X/4K/n4/mQXtUG9zDtX1HoiJCsbGTEXIxgC7dexEachGZgyNXI8Jwbe9Oaal6d6+TcxM6dlY7N+o/eDhZmRmkp6cypft72Nk7cinIn1PHD/Hm9HcfeT+ZN7SggbEx6anq7SLnfU8THhqCSqkkOzuT8RPfws5evZGvpKSYK5cuMmLMBExNzThz4qhW/QYNH8W6n1bQqUt3RCIRp44eone/QUSFXXmkDM8T9TJGEng6jkXT97FnfRCF+dVvtTZsoIv3Wx58vXEs3Qc1J9Q/gcUzD7D95wvk59bNt3MCzvng3qkLAK7t3QkKuL/L1NrWFjt79RvIytqWrMz0KsMT4m9gbWOHtY16sZxlYyssLBuRfDuxwjl1dfVIT0vhUpA/iQnxlJZUrEtUeCh5ubls27iWrRvWkJOTTV7efQvM1NQMRycXIsMuk3QrARMTMxpaWBJ6OZje/QZpfJJ06daLqPDQKusvQkRDC8sKSgRAR0eXWzdv4H/Oh/y8XEpLS2jeojXhV0LYs2MzMdfUDo4qC6tafhFt2rXHyEjtoEnm4ETXHn3Q0dVFKtXBzNyc/Lv17N7bCx1ddTe2c9eeWuMPj2qDe7i6uXM1Qr058vrVSLzHTyIiTL17O+baVVq1aVdluwDY2NpprrONnYysjIxHpr+HUqHQdD+69/Li0yXqF4qlZWNsbGWadCEXA5A5OGFqakartu1IiI8lK/P+ORpbWSNzcOJSkD+FhQVcCQmiW8++NZLheaHe1pHIyxWc3B/BhWPXGTy+HV4j26Cjq73EXKorYeBoVwaPb0cDYz1iIlLZv+EiN6Irust7EkqKi7kSchF7Byfib8SgUqrIzckmPi4GE1Ptr/SJxeJKPatrwlUVnQipVEpEIlGFFffbN61DpVLRrkNHbGX2FOTfHT95ML8I2nXoyMChVXs97ztgKH/t24nM3pGuPfvcOymiBxzuKO8dV7Yv6e75JNKKl7u0tISfvl9Gq7btaNKsheYBbWxtw3++/pZrVyM5/Nc+Onh40strQIWwquQPOK89gCiRal97sfj+sUQi0UonEld8v1XaBnexldmTlZVBTHQUMgcnGhgZYWRsQkx0FMYmJugbGDzUHKKHxkXuN5pEItF0WR9FdlYmhQUFNLa24Wqk9g7vnn0HcPLoQaa8/R4A/n4+FBcX8fP//guAvoEhFwPOM2jY/TYb8soofvt1Jcm3k+jRux86Oi/Wp2jrfdamqLCM/RuD+XzaXi4cj9HqpoyY1IHR0zuRm1XEL4tP8v28Q3WuRACCgy7QvEVr5i5czOy5C3n/k08ZOGQEQf5+tS7LwdmF20mJpN01aVNT7pCTk42NnT06ujqU3LU6VCoVYZeDmfjWTNp18EAiuf8Q6+rqUlKidqnQqk07/M+dpbBQ7XMlMyOd/DztrewOTs7Iy8u5HByEm3snANq6ueN7+rgmjb+fD+3ae2BqZk5OVqbmO84pd+5gbm5RZX2SbiVgbGLKsJFjaNnaFblc7bLw3mBkG9f29B8ynFsJNyoNq4n81REaEqz5HX4lhFYPdM/uzXxU1gYP0rK1K3t2blErN8DNvRO7t2/G1a2ioyMdHd1KrcOakpmRxqa1PzH4lVGVPvAeXbpxNSKU/Lxc0lKSSUtN4f8+X8rsuQuZPXch02Z9yEV/bb8rVja22MjsueB3hp59+2vFlZeXExEawvPMU1vZmp1RyO8/+HFifwSjpnrQztOenMwi/tl2Gf8TMXU62/MwAefO8urYCVphPfr0Y/nihXgNHFarsvT09HnrnffZvmkdABKJmGnvfIBUKqWxlQ0KhZwfli9hyAhvuvf2YuOaH9E3MKCkpAQzM7WHcjf3TuzauhFH5ya8Of1d+vYfwqpvv0JHqoOegQGvTZqGsYmJ1nmbt2pDQX6e5sbtO2AIf+7ZwYpl6jGSps1b0rVnH0QiEUNHjGblN18ilUrR0dVl8rSq+/sOTi6IxWK2b16HUqGktEStLNJTU9izcwuoVJSWljBx6sxKw+zsHSuVvzYYm5iwdcNqFAolDYyM8OzeC1B3Wb77ehHvzpmPsYlphTZ4ENf27gRd8KNFa7V/FrcOHuzasoG2lSiSFq3asPbnFcRej2b0axNrJOOOzevR09NHJBZhaNiAAUNG4Nq+Ytmgvkc6eHhy7uwpykrL6N1voKbrBtCsRSvEEjGJt25q5Zsy4z1UKpWWhQaQlnKHHZvXs2jZ/ypYV88Lde6PpKYYGulRXFhWZ4uBauOP5EWjuLiIb5Z8xqw587Cytn3W4jwThDZ4vqm1RaKrXzdGTFFB3fq71DN8sfqUNeXIP/u5HBzEK97jXtoHSGiD559aawVLa+P6kOOJsbSq3VTzi8KQV7wZ8or3sxbjmSK0wfNPrQdb23rIqk/0DGjznMolIPAyUHtF0kn2+B/rrifaejx/MgkIvEzUWpGIRCKmzutV557dHxcTcwMmftD9WYshIPBS81jrSGTODfngq4EYm+pXn7gesbAy4qP/Dsa8UYNnKoeAwMvOY0/BNG1jxRdrvDnyRyhBPnHk59TNUvaaYN6oAV37N2PQGFf0/6WzNQICLxJPNJdrbKbPuJmejH27M9nphRTml9brwjKxRIyxqT5mFobVJxYQEHhq1MmiEJFIRMPGRjSs5W5fAQGBfwcvlYc0AQGB+kFLkYhEdfxJOwEBgZcCra5NZYpk+LHxT00YAQGBFxORXC5XlZeXU1BQQHJyMmlpaRQWFqJ4wGmL4GVbQEDgUWgsEpFIhL6+PsbG6r00ZWVlyOXyF8oBrYCAwLNBCmolIpVKMTQ01DjEKS0t1VglgkUiICDwKP4fhE5cue4zq5IAAAAASUVORK5CYII=;" vertex="1" parent="1">
          <mxGeometry x="70" y="180" width="274" height="56" as="geometry" />
        </mxCell>
        <mxCell id="yJfsZLbiuFsfr0gUb3lU-15" style="edgeStyle=orthogonalEdgeStyle;rounded=0;orthogonalLoop=1;jettySize=auto;html=1;exitX=0.5;exitY=1;exitDx=0;exitDy=0;entryX=0.5;entryY=0;entryDx=0;entryDy=0;" edge="1" parent="1" source="yJfsZLbiuFsfr0gUb3lU-7" target="yJfsZLbiuFsfr0gUb3lU-6">
          <mxGeometry relative="1" as="geometry" />
        </mxCell>
        <mxCell id="yJfsZLbiuFsfr0gUb3lU-7" value="" style="shape=image;verticalLabelPosition=bottom;labelBackgroundColor=default;verticalAlign=top;aspect=fixed;imageAspect=0;image=data:image/png,iVBORw0KGgoAAAANSUhEUgAAARIAAAA4CAYAAAAxd3fHAAAABHNCSVQICAgIfAhkiAAAABl0RVh0U29mdHdhcmUAZ25vbWUtc2NyZWVuc2hvdO8Dvz4AAAAtdEVYdENyZWF0aW9uIFRpbWUARnJpIDMwIFNlcCAyMDIyIDEwOjMzOjA0IEFNIE1EVFJ4g48AAB3BSURBVHic7Z15fA1X+8C/M3fNThJZkIjYYgsiJPa1VGktpaoUpVXtq7po3191QbVV9NWNVlVp7bSqy0uppZaIBLHEHkFWstiz5947M78/bnIlEhKRWPrO9/PJJ/ecOefMM3fOPPc55zznGUFRFAUVFRWVu0C83wKoqKg8/GhLy5Rl2fanoqKiUhYlFIkkSZhMJobsGn0fxFFRUXkYKaZIFEVBlmWys7NLFFzfe809E0pFReXhwjZHoigKiqIgSRI5OTn3UyYVFZWHjGKTrYqiYDabMZvN90seFRWVhxAt3LBGCidYy6NIFEVBEAQAtsemsTAynvCz6aRm5FDVK8qCIODpbEfHep68EOpHtwaeJWRSUVG5d9jmSAoVicViwWKx3LZS4QOblW/m9d+iWRqVgIwIkhlkucofZlmWScnI4+cjF/jlSDIjg+vw+YAWOBp0qjJRUbkPlBjayLKMJEllVBPINlnosyCMJdHpCJIFjZSPqMiIYtW7poiiiKjIaKR8BMnCkuh0+iwII9tkAVQloqJyrynx1Bcqk9shCDBxbRR7U/PQmTKRFQVZAaWgflWjKAoKICsgKwo6UyZ7U/OYuDYK1RhRUbn3lLBICv9ux84z6Sw9kIQmPwuzdP897M2SgiY/i6UHkth5Jv2u2zOtHUbe3EYol05WgnQqKv98KjQO+XrXaUSNDqtd8GCgoCBqdHy96/RdtSPF/omctAcseZh3fVxJ0qncS8Z98xvaQVNYtPUAALXGzEY7aAqXMlS3hqqiVBf5stgTfwlFMsEDtN9PURQUycSe+EsVb0S2YNk960YyIQw5fgeiX9cyq76xeCNfrY/g3wM7MePZRyouQxXw7x//4rM/wkn98W3cne1LHH9mzk/8FH6sRP4TbQNY9/YztnTQG99wJD6VtwZ25JNnexUru+90MjN+2cm+08lczcrD3dmedgE+THmqG13eXcT1nLxbype8+N94VXMEbnyPbRrUJmLWuFvWqTVmNmnXskrkzxnTh0A/Lx5r3RBfd5db1lepXCqkSNIz80BRUB6gCQlFAWTJKlsFkaKXolyLB60BBA2YczHvmoGhTidr+iEl7GRCucq1C/Clua9nkbSP7fOR+FSOxKcCsHLnET4e8Qhiwf0/df4SXd9bhMki0bmpHzWcHUi7nsWGqNOM6taK53oEkZNvdSlYtPUAkiwzrFMgTnYGAOz1OgDMksSqXUcA2B+bTMz5SzSq5X5bmZ9s1xQ3pxvKMbRhbUIa+jDhsdByXbNK5VAhRSLAA6VEbAhChddslPwMLJFfAWB4YR+CsRrmDS8jnd6AdPxnNM2eLndbeWYLjkOn07tVA4Z0aMaMn3eQfDmD7oH+zB//BFNXbeO3vScx6rSMf7QtU4Z2wyLJGIdMI6CWOy8/FsLHP+8kIyef7oH+zBvXD5+CX9fzVzJ484dNbD50hnyzhaB6NZk1shftAnxt561Toxoju7Xk6w17uZKda5PLa/RM3JzsSVvydqlyD27flFf7tSv12JK/DwFQy9WZ81cy2HE0ju6B/gBsPhSLySLRN7gRv78z3FbnWnYeTnZ6+gY3utHO9kNIssyHw3vi51Gt2Dk2HojlYka27Rwrd0XzwbAet/2u3xnchRZ1vYrljfvmNxZvPciCl/sztmfrUutdzMjmzR828eeB0+SZLHRp5sfcF/pR17N6sXJnUq7w2qINHDqXwpXMXDyrOTCmZ2umDO0GwE/hx5i++m/i0q/h7mTPE20DmDuu321l/idSoTmSB2dAU5KKyibtm4eSd7UgYbK2ZckHwLJnDpjvfHy981gc7yzbTN/gRtRyc2bTwViaTZzL/tjzPNc9CLMkM33NdvbHJtvqnEm9wnsrtjIwtAkdGvuyISqGQTNXWlfTFIXHP1rOz+HHaB/gy4iuLYg6c57eHywh8dJ1WxsJF6+xfGc0A9s14Y93h+PqaAfAH++O4L/vjrjj67BIMqvCjqDViHw4vCcAy3ceth3393QF4PC5FLYfPWebrK/mYERzB+4AS7ZbldWMZx9BI4qs2BldJauAiqIw8JOVrNx1hO7N/RndvRW7TyQwaOZK5JvO52DUcTQ+jR6B/rz6eDu0GpHpa7azds9xUq5mMvKLtUiywlsDOtI3uBEXM0ruU/tfoEIWyT8NJeM8lkM/3MgwF/yKW6z/lex0LAe+Qxv62h21a5Zktn80lka13GkX4Mszc37Cxd5A+MxxONsbUICv1kew+2QirfxrWk8pySx7bbDtV7z/jBVsiIph8+Ez5JsljsSn8nibAH6dbJ27aFnXmwnfreez38KZOerGvMXmaaNtv646rXVY1rZB7VLnSAqZtHgjkxZvtKXnjOnDq/3asfHgadKvZ9OtuT+D2jVh/PzfWRdxgnnjHsfeoKNvcEPGP9qWBX/t55GpP1LT1YkBIU14+bEQAsoYmhRyOTOHP6NOY2/Q8WT7pszftI/ImCTCTybSsUmdW9ZrPembYukDc14u81wbD8YSGZPE84+05tuX+gPg7erElJXb2HU8nq7N6trKeld3IuH7N21pVyc73lm2hagz5/Fxd8YiybT09+bdp7qg0zy8w9+7pdIVSaFnqUYQCsZAIKOgyAWaXhBQFAWtKKKgIMkKGlEo4Y0qy9ZfYI0oAAKSLBf4iFT+kMoSPstmhQAo2WlgVx3yM26UiVqApvlwBIca5W7XqNfaxvg+bs4A+HlUx9neOjdQ+FBfzrxh7YiCQK9W9W3pHoH+bIiK4dC5FCwF/j1Fjz/S0vr5SELqjfPqtCVM9PLQPsCXlnW9bemWftYhQ+GwpmuzulgkmbYNa7P7RAK/7zvJsE6BCILAvHH9ePXxdqzcGc26yBN8s3Ev323ez8J/DeDZri3LPPfKXUcwSxLdmtclz2Sha7O6RMYksXzn4dsqkiEdmlHD2cGWdne5taIs5NC5FABWhR3l10jrEn++2erNffrCpWKKxJp3mfVRp4iOSyXiVCIAJotEy7reNK/jyc/hx9h+9BxPdwzk34M6UdPVqUwZ/mlUuiIRChRFXp7Z6jEmAFoNBr0GSVagQNHk5ZpAENAZteTnW8BykxOcToNOryE/zwKKgs5Y6P5eufLKaUeQTv1RLM/0y3AQtcWHM+YcLBFz0PWcWaHziGJJwQvNflkubk4XnekpVLBFFW3Rlgrzi1rkGk3x4YRYzi+tf0hjJvXvUCzvcmYOfx6wLqlPXbWNqau22Y4t3xHNsE6BtnQDbzemPt2dqU93Z9mOwzz31TomLd5YLkWytGBYs/nwGdyfnWHLX7vnOF8+3xeDrvSu+uaADrSuV+u2bd98/Tn51h+NCY+F8FKfkGLHqjsYi6V/jTzB0E/X4FvDhUGhTQmqV5NzadYhsEGnJXzmOL7fEsXCzVHM+zOSdZHHif5iAtULhpP/K1S6P7uiKIiCwIDWdRjduSFD2taloacz+XkWBEFAEECSZB5v5UvnAC/kXDNt/WswqlMDRnSoz/AO9RnVqQHNa1dHzjXTvbE3j7XwQbJIViVVyfJadn3MzTMrhmf+wDjhJKJ3ULF86dhPKJfvzk+lLGRFYdfxeFv67yPnAGhex5NmBSsq24/GlTge6HdjteVmCi2gq0UmXsvLqrAjmCwSIQ192Db9ObZNf45NU0dhp9exNfosqdeyyDNbOHW++LJ7x8ZWK+Jadh4my+23XBxPTOfQuRQcjHo2TxttO0/rerW4lp3H+qiYO5a7KI5GPQAZudY5r6B61mFk+KlEars52/6c7Qw4FJQtZMn2Q8iKwrYPxzB7dG/aBfgWO26n1zKxXzuOfvUKY3oGceFKJhExSXcl78NIpVsksqKg04gsGNoGDyerVrZIMmNXRLI04iw6gw69RmDtmI6cTMug5eRfGBvqz7gODYq1M3XDEY6eTOHboW3wcDJS4+1fkGWrkqqs0Y18dgtycmSJfMWSh2DJB/mmB0CRMIfNQD/gx8oR4BY89elqRnRpSfzFq6zfH0MTHw8eDWqAoig0q+PJLxHHGfrpGryrO7Fo6wGMOi1v3GRJFCW4fi1izl9i+Gc/0yPQv4QPyO1Yut06qTqhbwhdipj8T3VsxpK/D7E67Ai13Vx4+j9rqOflir+XK0adlogY6xBgYGgT9Nrbzx0UDp2GdWpuWwkC+NdjIYyZu47lO6J5sl3Tcst8M8H1axGbcpmxc3/luR5BDOvcnOZ1PNl9IoEeU36gU+M6nEm9zI6jcZxd8EYx66eavdVC2RZ9jlpuTqzYGW07dur8JQbPXEmPFvXwrObInpOJaESRhjXLNy/0T6LSLRJBEJAUBYusEBF3idBZG7mYlc+8oW3wrG6POc9EI09nNKKIh5MBFy9npvx5lMBPNhB/OYuTaddp9vF6vg47jVtNF9wcDdjrtdSt4VhglVSeTWIO/7TUfNOqAeTNbYicFl3imBy3HflCVKXJcDMGnZZ3h3Tlp/CjbDl8lp4t6vHbO8MRBQGNKPLfd0cwqF0TtkSfYeGWKFr6e7Np6ijq1Kh2yzanPt2d9gG+HEtIY/HWg+WW5dT5Sxw8ewE3J3sGhTYpdmxcr2DAOrfRyt+bV/qGYtBp2Hc6mb+PnsPDxZGPhvdkyWtP3vYcsqKwKuxIQZttih0b0qEp1R3t2HQwlqtZd25NFTL16e6ENPQhMiaJXyNPoNNo2PLBc4zt2ZqY5It8+ttuDp1LYXyftiXqTh/ek05N/Hht0QYmL9vC6O6tbMNJe4OOQD8v1kWcYPqa7eTkm5k//gnqe7tWWNaHFUGxgizLmEwmMjIyOH/+PFMuzipWsGioRf3rq2/ZoKwoiAIkTx9I3OUsQt9ey/89E8rMJ1oyeFEYv+yMYUzvZiwaHoqsKLT/bDN7T6eCKHLmwwFkmyy0mPYHCAJdmtZkx0TrcuOQxWGs3RuHwUGPXIYuMX1ePp8P05on71wpaO3QD1mN6FX2uP9OKPQjMei0ZK+ZUqltq6hUNVWy/Fs44SoIINobOJF6HUVRqF/DCSSZjvVqcDErD0e9lja+ruw7nYreTocoCNY/ow4l30yonxsZeWYkWaFD3RqsjThr/TWoJN8C/dBfrKs1d9KeRvtQe7mqqFQFVeZHUqhMZOBarglBEHDQa0CnpXM9D8LOXKSJtzMd63kwb/MJJNm6BVBBsa1idKnvybGUa+SZJTrV8wCNiFxQrtIWbzT6ssvcAwQBQhr6lPD2VFF5GKhShzRFAQQFU8HSrgJoXYz4uzsyL+w0CBDq5w4G69KwoCgIigCygtaoI6SOGysPxJNtkni9ayMcHI3kmCxoRYF/WuARjSgSPvOF+y2GikqFqMJwZgUhDxUBe70WRVG4mmMiwMu6Z+SvkynsPnuROtXt8XCxR7HItuVhLBK+ro64OhjYFpPGtphU9FoNDT2cUAqWgVVUVB4cqswiUZQCRyCLhJeTEQVIvJpN2zpuCILA6tEdqGanRwECvV3YejHTNkeCRaJl7eooisLs/i1t+x+CfVw5dCYdwSjck0hsKioq5aNKLBJrlDXIMVkQjTqGt/FDFAQOJV2lcz0PsvItRCdfJSrxMgoQ5OMKkoysyNYVGVmhra8rigL7E68QlXQFsyTTxtcNFBAeqJBK/7vIskRWZkbZBVX+8VTJXhuNKKLTCnSu70Hyf57C29mONQcTiLuUydOt63Ag6Qojv9wCbo4oc4fTt2lNZq+PxtmoRxAsoBV5onltruTkM3z+dpAVOs0ZSr9mtRCNWixyxSLFX7t6hc9nTeeDmV9U9mXfEovFwsofFzLy+ZfuqF5i/Dk+nzWdGh43tsg/PeI5/BtYN/Pt2xPGku+/4d3ps6lZ2xo3JCc7mzXLF5OcmGANkK0R6dG7H7m5OYTv/BtFlklLvYBXzdoADBzyDI2bWV3cp779GrV96vDCv14vVZ7FC+ZiMZvoN/Ap5n8xm/c++pQLyUls+u+vvPTav8t1TbExJ1n/6880DGhC3wGD7+j7eJCp6D0uZNmi+bQKDqFZi6CyCz+gVM1eG2Dt4STquDqQY5LYFpPKovBY3J2MbDudxrroJHSuDigakbk7Y3AwaBHt9Kw7kkSuSUK0N3As5RrHUq6jtbeuqnyzO5Z2dd1xtNOTmWdGq3k45kmuXrlEdlZmherW9vVj0uRppR7bs3sHLYLasC8ijAFDrDuBN/z+M27uNRg9bgKCIGA2mcjMzMDVzZ0u3XuRlZXJJ1Pf5p0Piu8Xio05iYtLNeLPnSE3Jwc7++Ib365dvUJ6agpvT7XugXn/4/+g1xvu+Hr2RYTR89F+NG/58D4wpXE39xhg2KjnEcWH26Wg0hWJKAhIssL4FXutEyUFS7kaOx3X8yz0nbsNNCI6nRYBmLhmPwig02t5YVmk7fNTC8NsnwFm/XUMFAWtXotWI971EvCShV/jXas2Rw8fJDs7i1bBIRiNdhyO2ktuXi5Dho2icbNAPnr/LdqEdCDm1HGyMjPo3K0XHbv2QJYl/rvuJ87ExiAAfv71GTBkGNlZWSya/yV29g7Y2zuQlZVJclICyxbNp3uvx6jlY92DYsrPZ/6Xn2KRLJjy82gVHMKj/QaWS/bLl9JJS7nApMnT+HzWdPoPHoYgCGRnZePh6W2z1nR6Pa5uZbtrR+7eQeuQ9iTGneXg/kg6dOluOyZJEj+t+IFrVy+zbNF8Bg4dwawP3uG9j0p6Be/esY2DUZEICPj6+dN/8A3HwIP7I4k5cYyrly+TmXGdxPhz2Nk7cDT6AGNenIgkWVi3ZgWKYl3hG/jUcOrUrVfu+wSQm5PDJ9MmM2XGf9BqdZjNZqa9/RpTZ3xGWuqFUttf/O1XtO/cjYAmzQGY88k0Rowex/YtG4vJV2j1JcbHsWb5YuwdHBAFkWfHvsTaVcuK3eOEuHOE7/obUaNBkWWee3ECbu4enDl9il/XLEen11Pb14/og/uZMuMzVi/9nlbBIXh512L18sV4edciKSGO3NwcRr8wgZq1fW5ZV6fT3bY/rV66qNh15OXmsOH3X9BoNBiMRp4Z/QIaUVPhvlhIlYURMBitTQtY98ZIsjU6vcFOV6BfipeTZOWWnwEMhsJ05bxRTxRFLiQn8frbU5AkmfffeoXmLYN46/2PiI87yy+rl9k6qEWyMPHNd8nNyWHmB5Np2Lgpx48cIuP6dd54eyqCILByyULCtm+ldUh7zsbG8MbkadSt14DE+HNs+G0tz44tbvbqDQZeeu0t9HoDFouF996cwCN9nkBTJKbFheREvpg13ZYePW4C1aq7EhG2kxZBbXD38MTe3oHYmBM0DGhK3wFPsnTRt+yPDKd+wwCaNG9Bw4Db71HJy8vl8IH9PDF4GC4u1di+ZVMxRaLRaOj/5DCW//hdiWsoStzZWE4cO8wrk95BEARWLfmeE0ejadK8BQBBbUI5fGCf7aFNTown9UIy73wwE4vFwsdT/o+XXn0LL+9aXEpPY95nM3n3w9l3dJ/s7O1p1qIVUXsjCO3QmaOHD9CkWQsQ4Pv5X5ba/u36R6F8Ra2FbX+tp3e/AQS2vBF5rW//J4vd4xqeXrTv3K2g/AYiw3fRq88TLFn4NRPemIynd01iT51g+5aNxc4piCJnT8cwcMgzDB42ksMH9rF103qGjRxbZt1b9aei12Eymfhy9odMfOs97Ozsidq7h80bfqf/4GFl9sWyqLJVmxtu7DdikQiCUMy93eqwJpQ4dnO5ou1VnmOrQHBoB0RRgyhq8PSqSZfuvQHw9PLm+tWrtpIh7ToB1o7aIqgNZ2JOEn0oikFPjbAptND2nflrw+8Eh3TA1c2duvUalDxlCQkETp86TlrKBWRJwmIxF7t5NWv78tr/FXeXVxSFvXt28ezY8QA0bxnEvojdNAxoSg0PLyZNnkZmxnXOxsawdeN6ovbu4ZlRt/ZPObg/ktq+fri4VKNxs0B+/G4eVy5fKpclU5QTR6PJuH6d5YsXAJCVlUlGxvVbVxAEWgWHIIoaEuJO4+VdCy9vazgAdw9P3NxrkHI+iTu5TwBdez7KDwvmEtqhM/sjw3nk0X4kxJ27Tftly1eUFkFt+O2nlSQnxBMc0h4PL+8SVfV6AxfTU0mMjyMpIQ5nl2okJcRRs5YPnt7WnccNAprg4lLS+dCrZk2b1erpVZMrlzeVu25p/anodSTGnyM7K4u1K5cCYLaYcXR0umXd+6pISrMUypt3N+3dLVqt1ubjphE1FAstcHPQJUW2xlUpEmNELpLWaIt+raXLmpQYz8ofFxLaoTO+fv4YjMZSy91MzIljZGVm8teG39n85x/k5+eTkpzE0BFjbGauk7MLLVu3pVmLIN565fnbKpKIsB3k5uYw77NPADDa2bM/MpzeffuXS56ilxnYqjW9Hit/Pdv3VBB6oiiKUvqrX297nwAPTy+cXapxLPogly6m4d+gEbGnTty6/dL6UmH72pKPR1CbUJtF+u1X/2HM+IncfI9X/PAdiqIQ2Ko1NWv7kJWZiclsKvkWyjL6sSiKSLJcrrq360+F1yEg4OHlbfsRKk/d8lL179f8B7A3fBdgXRU5evgAAU2a06xFELv+3mwrExG2g8CWwSXq6vQ68vJKRrY/Hn2Itu060qVHb2r71CnXi9sBInbvoO+Awbwy6R0mvDGZSZOnUbuOH0cPH+B8UiKZRayAhLizuLt73LKt9NQU0tNS+b/3P2bCG5OZ8MZkxr70KvsjdpdLFp1Ob7u2xk0Didi9k+xs6ysiLl+6SGZG+ZaGfev6cz45ifQ0a5S3tNQLXLt2Fe9aPmXULJ3uvR5jyfff0Ca0Y5ntV6/uRnqqNd9sNnP18iVcqt06ulxOdjaOjk6EtO9MYKvWXEhOLHaPFUXhyKEoRox5kcBWwWg01ofYz78+CfHnbDKci43h+rWrtzxPUcpTtzz9yadOXS4kJZKUYI1nk5eXS2rK+Qr3xaKoMVvLgUaj4YvZH5KTnUXfAUNwr+FBt0f68NvPK5kzwzpHUr9hAO06dSUnu3jwXw9PbyTJwuczP6DPE4Nsk3qt2oTw04ofSUtNQZIsGI1lR9TKzckh5uRxho18vlh+1x692Ru+izbtOrJq6ffk5+ehETUY7e0ZPW7CLduL2L2TLj16odPf2G/UoFFjRI1IUmI8Pr5+t5XH08ub3NxsFi+Yy5gXX6Fbzz58OftDdFodBjs7nn52LE7OzmVel8FgZMz4V1jxw3eANcLb2PET0ZZiEZSHeg0aYrFYCGnfqcz2H+nTj2WLvuXg/gjMZjN9Hh9023txLPog4bu22+7Zo/0GotPri93jDl26s/jbrzDa2ZGXl0e1atUxGu0Y9cK/WDz/S4z29tT1b4CTs3O5hg/lqVue/mS0s2PMSxNZvXSRLa9P/ycr1BdvpkJhBAyvr35gHcIEIL+cYQTKw0fvv8XEN9/FuZQxqcqDyd+b/yQ5MaHCfh33guTEBJYuml9iKb6q61YVFVL5ClhnPB+0PS8P2Eu7VO4tWZkZzJ0zA1e3Gjw7ZnzZFe4xJlN+gQUrYjAYGXmbVbDKrHsvqJBFUuv9X7mYY0ZQ5AfmrZ3W/YEiHg56kqcPqLR24+PO4lvH76F3GFJRqUoqNNna0d8DQaN/oHbhCoKAoNHT3q9y42X61a2nKhEVlTKokCJ5uVMDZMlMxV+QWfkICMiSmX91bni/RVFR+Z+jQoqkS30PRrb2QTI4onsA9rzoNAKSwZGRrX3oUv/Wy50qKipVQ8Xe/avAV4ODCfEyYtY7FcQRsa6Y3IvhjlDwsnBRsO7tMeudCPEy8tXg4AdmzkZF5X+JCjqkKTjotWx8sROjWnigaLRIGgOyICLLctnV7xJZlpEFEUljQNFoGdXCg40vdsJBr+XBfsW5iso/kwot/xYGdnY06Fg4NJhngnxYGBlP+Nl0UjNyqjx6mSiKeDnb0aGeBy+E+tGtgfUtc5WxmU9FReXOqbBna9EHtlsDT9vDfD9RlYiKyv1B3WujoqJy16iKREVF5a4pVZGoQwQVFZU7odQ5ktIUSb+/hla5MCoqKg8nxfbamM1msrKySElJIT09nezsbCRJsi3pqu+SUVFRKY0SFokgCBiNRpycrCHYTCYTFovlnviHqKioPJwUUySCIKDVarG3t8disQCQn59vs0pUi0RFRaU0bIpEEAREUUSr1WIwGLC3t7e+G8VsRpKkgrfnqYpERUWlJP8P53rWldNkTo8AAAAASUVORK5CYII=;" vertex="1" parent="1">
          <mxGeometry x="70" y="90" width="274" height="56" as="geometry" />
        </mxCell>
        <mxCell id="yJfsZLbiuFsfr0gUb3lU-11" value="" style="shape=image;verticalLabelPosition=bottom;labelBackgroundColor=default;verticalAlign=top;aspect=fixed;imageAspect=0;image=data:image/png,iVBORw0KGgoAAAANSUhEUgAAARIAAAA4CAYAAAAxd3fHAAAABHNCSVQICAgIfAhkiAAAABl0RVh0U29mdHdhcmUAZ25vbWUtc2NyZWVuc2hvdO8Dvz4AAAAtdEVYdENyZWF0aW9uIFRpbWUARnJpIDMwIFNlcCAyMDIyIDEwOjM3OjA5IEFNIE1EVHmk5dwAACAASURBVHic7Z13WFRH24fvLfQiiooooCAqKiAogth7r2g09p5E42uM0cTEBEvUFKPpsSRqLLGgsfeCBbEjUkRFOopUBQSEZcv3x8rKujQVNPly7uvykj1n5jm/mT1nynNmnhWpVCoVAgICAq+A+E0LEBAQ+PcjNCQCAgKvjBRAqVRq/gkICAi8KFKFQoFMJuOtcxPetBYBAYF/KVKlUklubq7OiYO9drwBOQICAv9GxAqFgry8vDetQ0BA4F+MuLCwkMLCwjetQ0BA4F+MVKlUvnRDolJBZnouOdn5KJVVtxxFLBFjVs0QC0vjKruGgIDAyyOVy+XI5fIXypSTnc+R7SFcORND9qMnVSRNlxq1TWnb3ZEew1wwNNJ7bdcVEBAoG6lSqUShUFQ4Q8ytVH5bfJLHmflVKKtkHqbmcHDrDS6fjub9RT2wtrV47RoEBAR0EatUqgqvH0mKe8SP84+9kUakOGkPHvP9vKNkZlSOk1i2ayT5PzdBlX6rUuwJCPzXEKtUKiqy3UalgvXLz5L/5J/hmM16mMeWnwJf2Y7i7mGUiRdAnk/huaWVoEygNBbvOI3Ux5elO8++tI01x64i9fFl5u+HNMeaTP8BqY8vUQ8eVobMfy3v/LYXqY8v604GvfZrV3iJfPjVRBJj/llfVNiVRO7FvoImpRz5+W+efYwPQBl3pkJZR63wQ+rjy4y1B0s87xcYjtTHl4bvrnx5fZVI0QPo+sEvKEvoOBLSszAZsRipjy9xqZkVsuk5dzWuH/xS2VJfmC4u9vRt1RgTw5fzm7Wc/RtSH18+3Xy8kpVVjI//PIbUx5f07IqPsEvK49qgDn1bNcauZrWqkFkmFW9Irt2rSh0vzc1X0KUI2YQqMw6kBqBnDIgoPLcMVBX3Ga07EUR0snZjplAqWbTd/6V1VSURialsPReqc3yJ32kKCivudM/JlxESm1yZ0l6a1dMGsX/+GKyrm71w3tC4ZELj1OXYeja0xEa2qgm4FV8peWb0bcP++WPo4eZYGbJeCGlFE2ak5FSljpcmPfnldKkKspFf+gkAg6lXEBlaUHhoOorIQyhu7kTi/HaF7BQqFCza7s+mWcM0xzadvsGd++k6af0Cw1nid4aoBxnUsTDlg4Ft+aC/NwBt563lSuQ9Vkzqw2+HL7NkdHe6uDgw8/eDHAqKpIapERO6urP66FXSsnNJ/nMeNc2NuRH7gDkbjnI58h5G+lKGtXVmxaTeGOmX3jsv2u7PiPbO6EkkANx9kMGm0zd00qVl5zJnw1EOB0WSL5PTybkBP0/tz9mbcUz5ZQ+gbpikPr74eDfDb+7bfLf3PBv9g0lMz0IFtGpYl5+m9MO5vpXGbmpWDgOWbOF0WAzVTY34YIA3cwa315zfcOo6K/aeJyblETXNjRnZwZUvR3dHXyopsTxNpv9AdPJDbv86C0frGqRn5/HJpmMcuHKbQoWS1o3q8du7A3G0rqGTd6N/MAD1aphz/2E2Z8Ji6erqAMCha3cYtOwvvp3Qi0ePn7Dh1HUK5AreauvMD1P6IpMrsBi1hEFeTRnq3ZylO8+QmJ6FdxM7Nsz0oW4NdcN28XYC8zafICjqPgZ6Unq4NWTFpD7IChU0mva9RkudCV9jaWZMysZ5HLkeyZd+Z4hKyiAnX4ajdQ0WjeyGm711qXne+W0v609eZ830QUzu3or7D7OZs+Eox4OjKCiU07JhXb4Z1xNvJzty8mXlan+Y84T31xzgZEg0coUSJ5tarJjYm7ZOdjr1WOERScE/xDfyPC+rS3HlF1T5j55+kAGgkhcAIL+wAgorNsy0rm7G9oAwwuNTAJDJFSzxO0MtcxOtdMeC7zJqhR+5+TKm9/HCtpYFH60/wt8Xb2qlW7jNn/bN6lO/lgXDvt2GX2A4Ho71GOjpxKqjV0jLfradISUzh25fbOBa1H3Gdnaje4uGrD1+lU82lj5Et65uRmzKI34/fk3rmnKFUkuzSqViyFdb2XoulK4uDkzo6s75iHh8vt5K9xYN2fyhuuG0t6rO2aWTWTyqOwAJaVnUNDdhUvdWDGztxLmbcYxa6aelYdWRKzzOL2Byj1YUFMqZt+k4foHhAOy+GMHUX/fyKDefqT09sLIwZcW+QOZsOFqh70MmV9DNdz0b/YNpZlebid1akpVbQF6BTCetXKFkW0AoUomYL0er9W85q9ugLtzmj19gOMPbu2BuZMDa41dZX8wPceJGFP9be5AuLg64NqjDqdBoPtpwBIDE9Cx6LdrIlch7jOrkSofm9dl14SYDlmzB0syIs0snU8PUCID988dwYP4YALLzCsh5ImNYW2fe6+1JbEomo1fuRK5UlJqnOEqVigFLtrAzMJy2TnaM6dyCa1H36bVoIwnpWRXSvmDrKXYGhjPYqynT+3hSw9SIvIKSn7cKj0j+P6HKvo88eMOzA4VP18LI1f+rclORB61F2mZWubbmDe3IB38c4outp9jz6Sh+P36N+LRMvp3Qi4//PKZJ57vVH5FIxNllU7CxNKegUI7V+K/55dBlhno316T7fnJfJnR1xz80hvMR8XRxceD4wvGIRCLGdXHDa+4aTdqV+wLJystn84fDGNnBFYCMx0/4/fg1lk/ohYGe7tc7tacHvx25zLKdZ5nQtSXRyQ/xCwynn0cTHj8pIO2muqE6cv0ul+4kMqVHK1ZPGwSAdQ0zfLeeIupBBu4OdQEw0tejXdP6Gvs/Te33rJ5VKvZevkVEYprWDejRqB6nv5yESCRiTKcWeH+yluV7Ahjezpmlu84AcPDzsbg7WFNQKMfp/R9Zc+wqnw/vXO73sftiBDcTUunp5shh33Flpj1yPZLUrFy6uDjg492M91btY/fFCH55ZwDGBs9GdNbVzbi2YhpmRgZ0aFaft77dzomQaMZ0dgOgoFDBha/fwbm+FQ9znlB73FecuBEFwA/7L5BXUMh3E3sza0BbAEau8GNnYDinQmMY0qYZek9HWp6NbKhprl50OaK9CyPau2g03LmfzrHgu0Q9eEiflo1LzFOcg1fvEBqXzIDWTuz5dBQAbvbWzFh7kJV7A1kypnu52oum7DP6tqGFfZ0y6/K1NSRSPQkunra4tLYhNSmbK2dieJj6ZqZL8sBvNKMQAFVuChhVh4LsZ2murUHiMhqRSa0ybbVpYkPfVo05cPU2/qExfLXrLHUsTJnW21PTkCiUSsLi1fPwVrN/0+TNKyjkbpL2FKiZjfp6oU/T92nVCJFIpM7bsB62NauR+LRHCY59AMD/1h5k1h+HAbXvolChIC41kyb1auroNTHUZ+6QDnyy8Rg/H7rExTsJqFQqFr7dVdMTAQTHqG1vCwhjzyX1a/EiH0pkUjp1SvFHyOQKjgRFEhARz617acjkCs3xInq0aKgpU+tGNlQzNiQiMY1ChYJbiWnUMjfB3cEaAAM9KR2bN+CvsyHcSkwt+UsoRlE992/dpNy0RdOazs72yBVKPBvbcD4inn1XbmkaZoAm9WpiZmQAoPHDpGQ+u3cN9aWaqVsNUyP0pRIyc/ORyRWEPh2p9nRrVKz8juwMDCcsPoUhbZqVqi/wVjwnQ6IJT0jlyl21L1BWWDH/XdH909P9mb+kyHdSdK487WO7uHEyJBqPOato62THjL5evNXOucTrVWlDIhKBY3MrvLo60qqjPcYm+igVSsQSMYMneHA3PJlLp6K4fj6OJ7m6Q8+qQJkSiuL2fq1jsr9Hg1iqPZ0pzEN+cQV63b8u1+biUd04cv0uQ77eSm6+jJWT+mj5KOQKJTK5AgM9KddWTNM8RAASsUjLlkSi/fl5xMXy5uare/kNM300I4Qi6liYlmpjeh9Pfth/gWW7zpKbL2OQV1PNg1tE0VRgRl8vpvXx0jpX3cSQ+w8f69iVK5R0+PQPgmOSGOjpRBcXewIi4sgr0F6nJBFrz6hFInW5RKiXGYieq4Kij6rnyl8SRedF5aTLeJzH4aBIABZsO8WCbac057acCdFqSJ7XCpTplC26dvE0xeUU/V207KKkMn20/gg/HryIV2Nberk7EpPykEc5z1aRl1cPmmuVoKssf3Jx7SM7uNK4riU/HrjI7osRjFzhR1xqJnOHtNfJVyUR0urYVmPQ+FYs3TCcOcv70a5nI2JupfLH12f4YOgWvv3oIAGHb1OvQXXGzWrP8q0jeeezLrh62SGRVm3QNvm5pahvyWcYjNqP4YxbiK1bah1XhPuhyogs16abvTWDvZqSmy+jbg0z3unVWtu+npRmtrUpKJQT9SADG0tzbCzNqWNhSjVjwxJtOtupe4m9l25pbsjQuGSt+W2rhurGIygqSWPTxtIccyMDpJLS69FIX49PhnYgN1+GSCRiwYguOmlaPrUdeDtBx7aJoT7mxuoeOjP32c0dFp9CUPR9xnZxY9cnI5kzuL3GoVucczfjNH8HRd8nMzef5na1kUokONnUJDUrl4ino49ChYKAiHgkYjFNbWphaqQPQHZeyYsi3Z42iCdDokstP8C2gFBkcgVejW05tXgipxZP5OiC8Rjp63EyJJrkzMoZLTvb1QbgdFiM5ph/qPpvl/rq6UJRXT4qVpfrT13Hwao6AV9NwXdEF+rX0l7FXVIe7etaPb1urM51XRtYlZjneVQqFa0a1mPTrGFE/PoBIpGIXRdulpi20kYkIpGITv2caNuzEfUbqYfUidEZ+O+7qbMnJzoileiIVHasvoRza1u8ujakRRs7WnWwJyc7n2tnYzm+K4yMSp76KKNPoLx3See4Sp6PSF4AyueGjSoFhQHL0B/8Z7m2l4zujm3NanRzdcCwBN/E58M7M2qFH0O/2caEri2RisUcuR7JhG4t+WhQO5303Vwd8Gpsy4XbCXT7YgMtHazZfj5Ma/HgzP7ebD5zg2W7zhKb+oj6tSy4eCcRYwM99n02uky97/RsTUJqFvVqmuPaQHf+O9DTCZf6VpyPiKeb7wY6NK1PVHIGZ8JiiV4zmzoWpthYmnMvI5tBy/5isFdTOjZvgEgk4ta9NK5E3uNkaDQ5+bojzfO34un35Wac6tXkr3MhAHzi0wGAz4Z1YuQKP/p9uZkR7V0IiIgnPi2T93p7YmVhiodjPQD2Xr7F/9YeZP5zfpMBrZ1oblebfZdvMWjZX7jbW3PhTgILRnTR8uUUvaWa0c+LTs72muPD2zuz0T+Y7QGhNLK2LLMOK8KsgW3540QQH/95jDv300nNymVnYDjN7WozyMsJAA/Hety5n87olTvp5urAV2N7YmFiSFp2HoG34olNyeTSnUQtuyXl0a6HJjjXt+LvizcZsXwH1tXNWHcyCEM9KbNLuN9KYvIve3j8REYz21o8yslHpVLR3K7kqX6ldf/Dpnoy8n1vzKsbcWxnGIve28OSGfs4uedmqRv75HIlNy7Gs2apP3NHbmPLj4E8SMikU/+mfPbzQAwqeWNeYeDyEo/Ltg0m/+fGKFNCdM4pY0+jTLpWQi5tmtSrycpJfejnUfLcfHg7Z/zmvk3jujVZe+wqG08HY1fLgk7NG5SYXiQSsXveSN5q50xwTBKbztxgUreW1K6mfrMiEYtwtK7B2aWT6eXeiANXb/PjwYtk5xUwqmPJw/Li6EslfDuhl+b18/PoSSScWDSRyd1bcedeGsv3nic45gHv9fHUpFk9bRCN61py9PpdjlyPpGGdGnw3sTfxqZkMWLqF6OSHDGnTVMf2zH7eiESw+thV9KUSvp/cV+MreKudM6unDcLYQI8fD1wkPvURHw5sy4qJvQFoZG3J4lHdMNSX8vuJa9zPyNKyrS+VcHLxRMZ3defSnURW7AskXybHxFBfk+b2/XSuRydhaWaMz3M+ind6egCUuNbmZahfy4IjvuNwb1iXP04EcSz4Lj7ezTj4+VjNFG/B211p62RHeHwK609eB2DdjCHUrWHGgCVb2HouhMndW2nZLSlPcSRiMQfmj8HHuxknQqL4/cQ13BysObpgvM7opjTaNLElLvUR3++/wMbTwfRu2YhlzzVYRYiSk5NV9+/fxzftG60Tz0dIW/HxYSLDSl+A9NE3fWjsak3IxQQunooi7Eoi8go6hoqo26A6bbo2pF2vxpiaG7LovT0kxT8qM49Xl4ZM+rhThezLdgytUKOghdQI/be2I67j9mL5qgCFUonFqKXIFUpydnyh42sQEHhTVJ6z9amTpoW3HS287cjLKSAoII7L/lFE3Uwp1cFTrYYxrTs70KabI7YO6gVDeUWO14r5kyqM/oi/1W9rXmT1okQKopIXQr1O8gvlrDl2lSeyQjo2byA0IgL/KKrsrY2xqQEd+jShQ58mZKTkcPl0NJf9o0hOzMLAUIpb2/q06eaIk1tdxGIRD1NzOOoXyqVTUTRrWY/h73qVf5GXQaJffpp/ENNW79daPFbd1Ihvx/d6g4oEBHR5LetILK1M6ft2C/q+3YKkuEdY1jHDwFBKXq6MC8fvctk/irvhyZqBQrOW9V6HrH8Fvd0bIRGLMTPSx6leLQZ4OmlWNQoI/FN47Stb6zaoTuydNI7vCiP08ov7Uf5rDPJqyiAvXYelgMA/iTeyRP56QBzXz8e9iUsLCAhUAYLHTkBA4JURGpJ/AXm5ucjlL7/7OiurYoGKXicVicpXnFetA4Gq5f91Q5J0P5H/TRlDemqKzrnQ4Gt8OG3C6xf1Eqxf8xNJ99QrG6Mib3HO/4Tm3Bdz/0dBQdkxdJd+MbdK9RXn+OF93EsoO1DPji3rCbvxYuEAi9fB5nWrCA/RXYT1upHL5Wz6Y1W56YrXSUZ6Gt8s/qxK9FwKPMvuHVsqrKUyqbSGpDJ/18bYVP2KVqV4dZtisYijh/bqHD92cC/if+FajNTkZGSyAs3nL5Z+h4FByft13gRJ9+6hfH6rwXOoXvFeGTl+Cs1c3vwCwUcP08nN0d28+DzF66SGZU1mz1tYJXo8vdszcGjZAbkq8v28DJXmbI0IuodTC+vyE5aBtZ0FQyZ60KKNHalJ2aTczyo/Uzk4Nm5KTFQkGempWNZUb6C6GXoDy1q1ychQb+GXy+Xs3r6ZtLQUCmUyOnbtScvWbdi+aR1GxiaEhQQx6d2Z5OXlsmfHFvT09bGxa0DI9av4LltJXm4OO7ZsQF5YiEKpYOiIsdS1sdVouBBwmnsJ8aSmPOBxdhbm1Szo1LUnRw7soSA/H482bendfwjzZr3HspW/IhZLUCoVfDb7fb7+YbXGTlxsNAFnTgLw4H4iI8dP4cv5c/h8yXIiwkK4fvUSSqWSrMxHGBoZMW7yNMyraS+Hjrl7h0P7/kYikWBgaMioCVMxMnoWz2LJF3PxatuRkOtXyc15TP8hwwkPDSblQRIqlZKp78+mhmXNEu2EBl/j7p0InjzJo34DB7r37s+qH5cjV8iRFeTj7uFF7/5DAIiKvI3/8cMUymTUd3Bk2MhxiMVirl4K5OypY0gkUkxMTRk5bjJm5toxSLdt/AN3Dy+cW7QkNPgaJ44cQCKVUquWFaMnvvOs3s+dJvCcP2KJBJVSycR3Z6BSqti+ZT11rOuRGB/Lkyd5TJg6A319/RKP17WxJedxNju2bCA7KwuFQk77zt1xa9maXds2cy8xns3rVtG1Z18UCgV+f/2JSCxGVpDPAJ8R5OY81qoTr3Yd+eO37/nEdxlKpYIDu/2IunsHEdDAwZHBb43kUuA5kpPu8zAjncxHD9HT0+e9D+ZgYGCI319/khgfi5GRMa28vPFq21FT3isXz5N0L5GOXXqUWJbEhFgtLX0HDS23vhPiYnTK5OzqrvOcVVpDcmxnGJkZeQwa3wrL2qVvYS8JC0tjBo5tiXePRqBSce7QbfZvvl4poxyRWESP3gM4enAvoyeob7KjB/cwctwUIm9HAOB//DA1a1sxfMxEFAoFK5YtwKmZC2KxmOSke3y26GsUcgWL53/EjNmfYmVdl7u3Izh9Qh2/Y8uGNQz0GYFtfXsePcxgw5qfmf3pQo0GsVhM5K2bzJrni6mpGWt++o79u3cwd/6XiMQi5n80g269+pdblgb2DWnlqd4b0723bvrI2xF8/uVyzMzNOX3iCHt2bmX8lOma8/n5T9i5bSMz536OkZEx1y5f4PihfQwaNlKTpiA/HwMDQ+bMX0xiQhzfLPqMcVOmM37KdE4cOUDgWX969B1Qqp3rVy7Rb9BQ7BqowxVOmzUXfX0D5HI5n8+ZQY8+AwGIvnuHWR9/gZ6+Pht//5WLAWews3fgxJH9zP50IYaGRly9dJ7tm9cz9f0PS6yPB0n3OLh3Fx9+4ouRsbHOD715tGlL247qnc2njh3iUuA52rTrRHTkHYa8NYphI8dxI+gKJ48epN/gYSUeHzdlGls3/o6ruwdt2nVCJitg5bKF2No1oN+goRzau4uxk6cB6g5p9qcLEIslJMTFsnvHZmZ94qtVJxnpaRp9Z08dJzsri9nzFiASidi68XcCTp/EwNCQW+GhzJrni4mJKX5//cn1q5do6NiEmLt3mLfwqzLvE5FYXGpZimtJTIgrt77r2tjplKlKGxKAy/7RBAXE0XlAU/q+3QITM4My0xub6NN7hCtdBzVHT19CcGAcezYEVcpIpDhe7Tpw/Mh+Hmakk5r8ADNzc60Rw83QG5iYmnA/MQEAfQMDsjIfgUiEu4cXYrGEuPgo6tazxcpavb2+kVMzqlWzQKFQEB15hzMnn0VD042FIaK5qxumpuqgODZ2DWjctDl6+uopnEX16jzOfvUyN3N2xczcHADvDp05eVQ7wn1CXAy5OTns2roJgEJ5oUZTce1t2ql7uXo2dhgaGeHprY4/YVXHmtDgoArZeVZyEZG3b5LyIAmlQqFxmLbr1FVTfk/vDlwIOE1W5iO82nbE0FC94M7Dqx07/9pYanlDgq7i3b4TRsbqEZVUqn076+sbkJaaTEJcLInxsZrRWZ26dalnW/9pmeryMONoqceVSgVRkbeZ+v5sjU03D09u3QylsZP2hj+pVErO42xio6NIjI8t13cVEnwNn+FjNPdLm7YdOXZoH+6tvWjq7IqJibpDtrKuy8OMdFq3aY9UT491q37ErZUnbq08kZQQpqGsMhYnLDio3PquaJkqfR2JvFDByd3hXDgWqdVIaF1UX0LPoS70HuGKiZkBd8NT2L3uKjG3y4+A9TKIxRK69erHsUN7SU5KYujbY7XOi0TQo89A7Bs20skreXpzygpluj4VkQiRSD3qGTPp3XKD6TyzqV0fYrHkqTnt/CXZE4lEpb/xeC798+lEiKhdx5qxk9+rkE6xWIxE/EyrWCJBpVKVbaeYhsSEOLb++Ttt2nXEroEDBobPfDnFHwCJVIJILEaFSqvMKpWqzP1W5f2w218b1qJSqXB1b/V0iqLrzxCLxShKsFN0vKgKn9el/qwt7mLAGa5eDqRNu07YN2xEWEhQUeaSBapUiIoFtlI+97m4FqVCiVQq5aPPFhEfG82l82e5EXSFydM+KLMOdMpYvBwVqO9Sy/T8NcpV8ZLk5crYvf4aX0zexYXjd7WmKQPHujN0SmuyHubx68KTfDf3UJU1IkV4t+/MrfAwDAwNsGtgr3WuaXNX/I8f1jx4cbG6QXEaODgSHxdDaop6B3TM3TtkZT5CLJbQwMGRc/7qgMsqlYqEuBid/BWheg1LUpLVIQ6Tk5KoXkMdD0NPT5/8/CeavwvyS+4VIsJCeJytDhd54dxpmhdzSCqVCmzr25OUmEBivDrYTX7+E5If3H9hnWXZ0dd/pvVmSDCe3u3p1K0XNrb1tX6sPuT6s/1DYTeu07SZC86u7ly5EICsQO1MvnIxgGbObjp1UISLeysunj/Dkzx1ZLtCWbHwmSoVocHXGDPpXVzdPZBIXq7PlEgk2Ds04uql8wAUFOQTfO0KzV3d0NPXI7/Yd3H1ciA+w8fg6d0eU7NnI7TidVIc5xYtNfcNqB9aVzePMvXk5eWqfSnDR3Ev8cXfvhTXUlZ9l1em56nyla2P0nPZ+H0AJ3aHM2SiB65etmRm5HFgSzAXT9yt1Lc9ZSGRSFjw1coSe/luvfuxa9tmvlr4KVKplNpWdTT+lCIMDY0YP/V91q/6EUNjY+wdGmFmbo5EImHMxHfZtvEPLgWeQ6VS4e7hpfERvAjDR09g+6b1iMQiFAoFw0aqgxc7u7qzffN6ho+aQJOmzVnzywqiIm8zedpMrfyOjZ3YvnkdmQ8zMLeozphJ7wLg0qIly5f4Mn3Wx0yaNpPtm9Zp8vQZNJQ61i+2t8nQyKhUOy1atmb75vXUt29I7/6D8fvrT1KSH6BQyDVDaAAzc3M2r1uFQqHExNQUr3YdEYvFdOreix+XL0FPTw8z82q8PXayTh0UYWvXgB59BvLLyq/Q09entlUdRo2fCqhHEO06dWX96p8wNDIiPz8fC4vqL1TOIkZPfIftm9dz/ow/SqWCXv0GUce6HgqFAoVCzvdfL6LPQB86dunBvr+3YVmzNhKJBJFI3U8Xr5P+g9/S2O3Sow97d25lxTK1j8SxsRPeHTpz+cK5EnUUFhby59pfUMjlZGdn0XegzwuXpbiW8VOml1rfRZRWpueptHgkFcXY1IAnubIXXpBUGi8Sj6QyuZcQz6Z1q/hsUfkxXV8HwdcuczsijJHjprxpKQL/QSo8ItE3rJzBS15OQfmJXgAD48qNolYWMlnB095DjIGBIeOeeusFBP7rVLh1qFnnxX8O8XVQ0+rFXjW/Cvr6Bny68J8xAnmeho2aYFvfvvyEAgJVQIWdrc4eNlWp46Vp/g/V9boxr2ZBzVq137QMgf8oFW9IWttgY6/726lvEmePf54mAYH/IhVuSEQiERPndqz0yO4vi3l1I8bMrFhYfQEBgarlhdaR2NjXYOaXPTGr9mY3iVlamfLhV72pXsuk/MQCAgJVzgu/inFsbsWC1T4c2RHClTPRPM4sexlwZVK9lgne3RvRa5gLhq/xbY2AIov4igAAANJJREFUgEDZvNQ7XTMLQ4a/68Vb73jyKC2X3McFVbqwTCwRY1bNEAtL3V9dFxAQePO80uIQkUhEjdqm1HjB3b4CAgL/v/j3RfYREBD4xyGGkneZCggICFQUKZTckPQ/NuK1ixEQEPh3IkpLS1M9ePCA1NRUcnNzUSgUmjgPlbWxTkBA4P83UpFIhKGhIWZPYw3IZDLkcnm5QWMEBAQEipBKpVKMi8W7LCgo0IxKhBGJgIBARZBKpVIMDAwwNjZGJBJRWFiIQqFApVIJDYmAgECF+D91msCqnGe/XwAAAABJRU5ErkJggg==;" vertex="1" parent="1">
          <mxGeometry x="410" y="236" width="274" height="56" as="geometry" />
        </mxCell>
      </root>
    </mxGraphModel>
  </diagram>
</mxfile>
